<?xml version="1.0" encoding="UTF-8"?>
<!DOCTYPE svg PUBLIC "-//W3C//DTD SVG 1.1//EN" "http://www.w3.org/Graphics/SVG/1.1/DTD/svg11.dtd">
<!-- Creator: CorelDRAW -->
<svg xmlns="http://www.w3.org/2000/svg" xml:space="preserve" width="600px" height="600px" version="1.1" style="shape-rendering:geometricPrecision; text-rendering:geometricPrecision; image-rendering:optimizeQuality; fill-rule:evenodd; clip-rule:evenodd"
viewBox="0 0 600 600"
 xmlns:xlink="http://www.w3.org/1999/xlink"
 xmlns:xodm="http://www.corel.com/coreldraw/odm/2003">
 <defs>
  <style type="text/css">
   <![CDATA[
    .str0 {stroke:#E62EE6;stroke-width:4;stroke-miterlimit:22.9256}
    .str1 {stroke:#E62EE6;stroke-width:2;stroke-miterlimit:22.9256}
    .str2 {stroke:#E62EE6;stroke-width:4;stroke-miterlimit:22.9256;stroke-dasharray:8.000000 4.000000}
    .fil2 {fill:none}
    .fil1 {fill:#141414}
    .fil0 {fill:#141414}
   ]]>
  </style>
 </defs>
 <g id="Слой_x0020_1">
  <metadata id="CorelCorpID_0Corel-Layer"/>
  <g id="_2269475176800">
   <rect class="fil0 str0" x="97.23" y="452" width="80.87" height="96.79"/>
   <rect class="fil1 str0" x="52.68" y="491.53" width="69.52" height="57.26"/>
   <rect class="fil0 str0" x="155.85" y="473.81" width="54.97" height="74.98"/>
   <rect class="fil2 str1" x="59.77" y="501.42" width="10.22" height="14.31"/>
   <rect class="fil2 str1" x="73.8" y="501.42" width="10.22" height="14.31"/>
   <rect class="fil2 str1" x="89" y="501.42" width="10.22" height="14.31"/>
   <rect class="fil2 str1" x="103.42" y="501.42" width="10.22" height="14.31"/>
   <rect class="fil2 str1" x="105.85" y="462.91" width="10.22" height="14.31"/>
   <rect class="fil2 str1" x="122.21" y="462.51" width="10.22" height="14.31"/>
   <rect class="fil2 str1" x="138.57" y="462.91" width="10.22" height="14.31"/>
   <rect class="fil2 str1" x="163.79" y="481.99" width="10.22" height="14.31"/>
   <rect class="fil2 str1" x="191.05" y="481.31" width="10.22" height="14.31"/>
  </g>
  <g id="_2269475176464">
   <rect class="fil0 str0" x="429.14" y="227.96" width="79.41" height="95.04"/>
   <rect class="fil1 str0" x="385.39" y="266.78" width="68.27" height="56.22"/>
   <rect class="fil0 str0" x="486.7" y="249.38" width="53.98" height="73.62"/>
   <rect class="fil2 str1" x="392.36" y="276.48" width="10.04" height="14.06"/>
   <rect class="fil2 str1" x="406.13" y="276.48" width="10.04" height="14.06"/>
   <rect class="fil2 str1" x="421.06" y="276.48" width="10.04" height="14.06"/>
   <rect class="fil2 str1" x="435.22" y="276.48" width="10.04" height="14.06"/>
   <rect class="fil2 str1" x="437.6" y="238.67" width="10.04" height="14.06"/>
   <rect class="fil2 str1" x="453.66" y="238.28" width="10.04" height="14.06"/>
   <rect class="fil2 str1" x="469.73" y="238.67" width="10.04" height="14.06"/>
   <rect class="fil2 str1" x="494.49" y="257.41" width="10.04" height="14.06"/>
   <rect class="fil2 str1" x="521.27" y="256.74" width="10.04" height="14.06"/>
  </g>
  <path class="fil2 str2" d="M224 526c0,0 136,3 140,-50 4,-53 -96,-85 -94,-140 2,-55 90,-54 90,-54"/>
 </g>
</svg>
