<?xml version="1.0" encoding="UTF-8"?>
<!DOCTYPE svg PUBLIC "-//W3C//DTD SVG 1.1//EN" "http://www.w3.org/Graphics/SVG/1.1/DTD/svg11.dtd">
<!-- Creator: CorelDRAW -->
<svg xmlns="http://www.w3.org/2000/svg" xml:space="preserve" width="600px" height="600px" version="1.1" style="shape-rendering:geometricPrecision; text-rendering:geometricPrecision; image-rendering:optimizeQuality; fill-rule:evenodd; clip-rule:evenodd"
viewBox="0 0 600 600"
 xmlns:xlink="http://www.w3.org/1999/xlink"
 xmlns:xodm="http://www.corel.com/coreldraw/odm/2003">
 <defs>
  <style type="text/css">
   <![CDATA[
    .str0 {stroke:#00C4FF;stroke-width:4;stroke-miterlimit:22.9256}
    .str2 {stroke:#00C4FF;stroke-width:4;stroke-miterlimit:22.9256}
    .str1 {stroke:#FF4E33;stroke-width:4;stroke-miterlimit:22.9256}
    .str3 {stroke:#FF4E33;stroke-width:4;stroke-miterlimit:22.9256}
    .fil0 {fill:none}
    .fil1 {fill:#141414}
   ]]>
  </style>
 </defs>
 <g id="Слой_x0020_1">
  <metadata id="CorelCorpID_0Corel-Layer"/>
  <path class="fil0 str0" d="M97.12 481c0,0 -10,-28 8,-72 18,-44 31.01,-39 53,-39 22,0 37,0 37,0 0,0 4,8 4,29 0,21 1,61 1,61l6 0 -3 -81c0,0 6,-3 7,13 1,16 1,59 1,59l272 0 26 9 -1 8 -48 0 8 20 -129 6 -136 5 -107 0 -6.12 -17.5 7.12 -0.5z"/>
  <circle class="fil1 str1" cx="170.05" cy="499" r="24.5"/>
  <circle class="fil1 str1" cx="371.62" cy="499.5" r="24.5"/>
  <path class="fil0 str2" d="M165.12 384l12 0c0,0 4,-1 4,8 0,9 1,19 -11,24 -12,5 -50,18 -50,18 0,0 -13,4 -10,-9 3,-13 5,-19 8,-26 3,-7 8,-14 15,-15 7,-1 32,0 32,0z"/>
  <path class="fil0 str3" d="M260.35 434.47c0,0 0.53,-29.02 23.75,-28.49 23.22,0.52 23.22,29.02 23.22,29.02l117.16 -0.53c0,0 -0.53,-19.52 11.61,-25.33 12.14,-5.8 22.16,-2.64 29.02,5.28 6.86,7.92 5.28,17.41 5.28,17.41l24.28 -2.63c0,0 4.75,-3.17 5.28,-9.5 0.52,-6.34 0,-13.2 -3.17,-16.36 -3.17,-3.17 -2.64,-21.64 -2.64,-21.64 0,0 -10.55,2.11 -23.75,-2.64 -13.19,-4.75 -42.22,-15.83 -68.08,-16.89 -25.86,-1.05 -52.77,1.06 -72.82,11.09 -20.06,10.02 -23.23,11.61 -43.28,15.83 -20.05,4.22 -39.58,7.39 -45.91,19 -6.34,11.61 -1.59,25.86 0.53,25.86 2.11,0 19.52,0.52 19.52,0.52z"/>
  <circle class="fil0 str3" cx="283.57" cy="429.2" r="17.94"/>
  <circle class="fil0 str3" cx="447.7" cy="428.67" r="17.94"/>
 </g>
</svg>
