<?xml version="1.0" encoding="UTF-8"?>
<!DOCTYPE svg PUBLIC "-//W3C//DTD SVG 1.1//EN" "http://www.w3.org/Graphics/SVG/1.1/DTD/svg11.dtd">
<!-- Creator: CorelDRAW -->
<svg xmlns="http://www.w3.org/2000/svg" xml:space="preserve" width="600px" height="300px" version="1.1" style="shape-rendering:geometricPrecision; text-rendering:geometricPrecision; image-rendering:optimizeQuality; fill-rule:evenodd; clip-rule:evenodd"
viewBox="0 0 600 300"
 xmlns:xlink="http://www.w3.org/1999/xlink"
 xmlns:xodm="http://www.corel.com/coreldraw/odm/2003">
 <defs>
  <style type="text/css">
   <![CDATA[
    .str2 {stroke:#BFBFBF;stroke-width:2;stroke-miterlimit:22.9256}
    .str1 {stroke:#B59763;stroke-width:3;stroke-miterlimit:22.9256}
    .str0 {stroke:#BFBFBF;stroke-width:3;stroke-miterlimit:22.9256}
    .fil0 {fill:none}
   ]]>
  </style>
 </defs>
 <g id="Слой_x0020_1">
  <metadata id="CorelCorpID_0Corel-Layer"/>
  <g id="_2286647474032">
   <line class="fil0 str0" x1="212" y1="95" x2="276" y2= "95" />
   <line class="fil0 str0" x1="212" y1="104" x2="283" y2= "104" />
   <line class="fil0 str0" x1="337" y1="94" x2="403" y2= "94" />
   <line class="fil0 str0" x1="331" y1="104" x2="403" y2= "104" />
   <polygon class="fil0 str1" points="294,106 307,93 321,106 "/>
   <polygon class="fil0 str1" points="278,83 291,103 303,90 "/>
   <polygon class="fil0 str1" points="324,103 337,83 311,90 "/>
   <polygon class="fil0 str1" points="297,81 307,87 318,81 307,68 "/>
   <line class="fil0 str2" x1="213" y1="205" x2="253" y2= "205" />
   <line class="fil0 str2" x1="360" y1="205" x2="401" y2= "205" />
   <path class="fil0 str0" d="M99 125l0 10 10 0c0,0 3,30 -10,34l0 9 45 0 1 -10 -5 0 0 -33 5 0 0 -10 -46 0z"/>
   <path class="fil0 str0" d="M129 168l0 -33 -9 0c0,0 1,28 -4,33l13 0z"/>
   <path class="fil0 str0" d="M170 125c0,0 20,-2 20,28 0,30 -20,27 -20,27 0,0 -22,0 -22,-26 0,-26 13,-28 22,-29z"/>
   <path class="fil0 str0" d="M170 136c0,0 8,1 8,16 0,15 -7,17 -7,17 0,0 -10,3 -10,-16 0,-19 9,-17 9,-17z"/>
   <path class="fil0 str0" d="M193 125l0 10 4 0 0 33 -5 0 0 10 26 0c0,0 16,-3 15,-17 -1,-14 -12,-17 -16,-17 -4,0 -7,0 -7,0l-1 -9 9 0 0 6 11 0 0 -16 -36 0z"/>
   <path class="fil0 str0" d="M209 168c0,0 12,1 12,-7 0,-8 -12,-7 -12,-7l0 14z"/>
   <path class="fil0 str0" d="M235 178l21 0 0 -10 -5 0 0 -9c0,0 21,3 21,-18 0,-21 -22,-15 -22,-15l-15 0 0 9 4 0 0 33 -4 0 0 10z"/>
   <path class="fil0 str0" d="M250 149l0 -14c0,0 9,-1 9,7 0,8 -9,7 -9,7z"/>
   <path class="fil0 str0" d="M295 124c0,0 -20,0 -20,28 0,28 22,27 22,27 0,0 20,1 20,-29 0,-30 -22,-26 -22,-26z"/>
   <path class="fil0 str0" d="M296 135c0,0 8,1 8,15 0,14 -7,18 -7,18 0,0 -10,2 -10,-17 0,-19 9,-16 9,-16z"/>
   <path class="fil0 str0" d="M341 125l12 0 0 3c0,0 19,3 19,23 0,20 -19,22 -19,22l0 5 -11 0 0 -5c0,0 -20,1 -20,-22 0,-23 19,-22 19,-22l0 -4z"/>
   <path class="fil0 str0" d="M353 138l0 26c0,0 8,-1 8,-13 0,-12 -8,-13 -8,-13z"/>
   <path class="fil0 str0" d="M341 138l0 26c0,0 -8,-2 -8,-13 0,-11 8,-13 8,-13z"/>
   <path class="fil0 str0" d="M373 125l45 0 0 10 -4 0 0 33 4 0 0 10 -19 0 0 -10 4 0 0 -33 -8 0c0,0 4,40 -18,45l-3 -11c0,0 10,1 10,-34l-11 0 0 -10z"/>
   <path class="fil0 str0" d="M441 124c0,0 22,2 21,26 -1,24 -15,29 -22,29 -7,0 -20,-2 -20,-26 0,-24 12,-29 21,-29z"/>
   <path class="fil0 str0" d="M441 135c0,0 9,1 8,16 -1,15 -4,17 -7,17 -3,0 -10,1 -10,-16 0,-17 9,-17 9,-17z"/>
   <polygon class="fil0 str0" points="464,142 464,125 503,125 503,142 494,142 494,134 488,134 488,167 494,167 494,178 473,178 473,168 478,168 478,133 472,133 472,142 "/>
   <path class="fil0 str2" d="M273 204c0,0 -4,0 -5,3 -1,3 1,5 5,5"/>
   <polyline class="fil0 str2" points="282,201 287,198 287,212 "/>
   <path class="fil0 str2" d="M297 217c0,0 8,-5 8,-9 0,-4 1,-10 -5,-10 -6,0 -5,5 -5,6 0,1 2,5 5,5 3,0 3,-2 3,-2"/>
   <polyline class="fil0 str2" points="311,201 316,198 316,212 "/>
   <polyline class="fil0 str2" points="323,201 328,199 328,212 "/>
   <polyline class="fil0 str2" points="340,212 340,204 345,204 "/>
  </g>
 </g>
</svg>
