<?xml version="1.0" encoding="UTF-8"?>
<!DOCTYPE svg PUBLIC "-//W3C//DTD SVG 1.1//EN" "http://www.w3.org/Graphics/SVG/1.1/DTD/svg11.dtd">
<!-- Creator: CorelDRAW -->
<svg xmlns="http://www.w3.org/2000/svg" xml:space="preserve" width="600px" height="600px" version="1.1" style="shape-rendering:geometricPrecision; text-rendering:geometricPrecision; image-rendering:optimizeQuality; fill-rule:evenodd; clip-rule:evenodd"
viewBox="0 0 600 600"
 xmlns:xlink="http://www.w3.org/1999/xlink"
 xmlns:xodm="http://www.corel.com/coreldraw/odm/2003">
 <defs>
  <style type="text/css">
   <![CDATA[
    .str0 {stroke:#BFBFBF;stroke-width:3;stroke-miterlimit:22.9256}
    .fil0 {fill:none}
   ]]>
  </style>
 </defs>
 <g id="Слой_x0020_1">
  <metadata id="CorelCorpID_0Corel-Layer"/>
  <g id="_2286749700720">
   <path class="fil0 str0" d="M166.16 74.26l254.22 2.7 0 297.5c0,0 -113.59,-73.02 -251.52,-2.7l-2.7 -297.5z"/>
   <path class="fil0 str0" d="M387.92 355.53l-37.86 -159.57c0,0 -27.04,119 -56.79,127.11 -29.75,8.12 -45.98,-8.11 -56.8,-45.97 -10.82,-37.87 -2.7,-81.14 -2.7,-81.14 0,0 -8.11,-5.41 -10.82,2.7 -2.71,8.12 -18.93,75.73 -8.11,124.41l5.4 27.05"/>
   <path class="fil0 str0" d="M377.36 355.13c0,0 -5.66,-148.35 -13.78,-156.47 -8.11,-8.11 -29.74,-10.81 -29.74,5.42 0,16.22 -10.24,115.98 -37.87,127.11 -27.63,11.13 -56.79,-18.94 -64.91,-43.28 -8.11,-24.34 -10.82,-83.83 -13.52,-83.83 -2.7,0 -27.05,43.27 0,137.93"/>
   <circle class="fil0 str0" cx="304.08" cy="268.98" r="35.16"/>
   <circle class="fil0 str0" cx="293.26" cy="271.69" r="35.16"/>
   <path class="fil0 str0" d="M272.64 75.1c0.16,1.43 0.24,2.88 0.24,4.35 0,21.66 -17.55,39.22 -39.21,39.22 -21.66,0 -39.22,-17.56 -39.22,-39.22 0,-1.58 0.1,-3.14 0.28,-4.67"/>
   <line class="fil0 str0" x1="176.97" y1="131.05" x2="193.2" y2= "112.12" />
   <line class="fil0 str0" x1="217.54" y1="152.69" x2="222.95" y2= "128.35" />
   <line class="fil0 str0" x1="260.81" y1="152.69" x2="249.99" y2= "128.35" />
   <line class="fil0 str0" x1="274.33" y1="114.83" x2="290.56" y2= "125.64" />
   <line class="fil0 str0" x1="285.15" y1="87.78" x2="306.79" y2= "90.49" />
   <path class="fil0 str0" d="M323.02 131.05c0,0 70.32,5.41 94.66,8.12"/>
   <path class="fil0 str0" d="M317.61 85.07c0,0 23.48,18.23 18.93,32.46 -4.55,14.22 -18.93,-5.41 -18.93,-5.41l0 -27.05z"/>
   <path class="fil0 str0" d="M344.66 88.02c0,0 23.48,18.23 18.93,32.45 -4.55,14.23 -18.93,-5.41 -18.93,-5.41l0 -27.04z"/>
   <path class="fil0 str0" d="M369 90.72c0,0 23.48,18.23 18.93,32.46 -4.55,14.22 -18.93,-5.41 -18.93,-5.41l0 -27.05z"/>
   <path class="fil0 str0" d="M379.81 177.03c0,0 3.24,-29.55 17.74,-33.12 14.5,-3.57 5.31,18.96 5.31,18.96l-23.05 14.16z"/>
   <path class="fil0 str0" d="M390.63 93.43c0,0 23.48,18.23 18.93,32.45 -4.55,14.23 -18.93,-5.41 -18.93,-5.41l0 -27.04z"/>
   <path class="fil0 str0" d="M358.18 174.32c0,0 3.23,-29.55 17.74,-33.12 14.5,-3.57 5.3,18.97 5.3,18.97l-23.04 14.15z"/>
   <path class="fil0 str0" d="M333.84 168.92c0,0 3.23,-29.55 17.74,-33.12 14.5,-3.58 5.3,18.96 5.3,18.96l-23.04 14.16z"/>
   <path class="fil0 str0" d="M274.33 126.02c0,0 27.35,-11.66 37.57,-0.77 10.22,10.88 -13.93,13.92 -13.93,13.92l-23.64 -13.15z"/>
   <path class="fil0 str0" d="M306.79 166.21c0,0 3.24,-29.55 17.74,-33.12 14.5,-3.57 5.3,18.96 5.3,18.96l-23.04 14.16z"/>
   <path class="fil0 str0" d="M55.27 398.8l48.68 0c0,0 -2.7,10.82 -13.52,10.82 -10.82,0 -18.93,0 -18.93,0l0 64.91c0,0 0,10.81 -16.23,10.81l0 -86.54z"/>
   <path class="fil0 str0" d="M101.25 525.91l0 -100.07c0,0 13.52,-10.81 35.15,-2.7 21.64,8.12 18.94,35.16 18.94,35.16 0,0 0,24.34 -24.34,27.04 -24.34,2.71 -16.23,0 -16.23,0l0 29.75c0,0 0,10.82 -13.52,10.82z"/>
   <path class="fil0 str0" d="M114.77 471.82c0,0 21.63,5.42 24.34,-16.22 2.7,-21.64 -21.64,-21.64 -21.64,-21.64l-2.7 37.86z"/>
   <polygon class="fil0 str0" points="168.86,420.44 168.86,485.34 185.09,485.34 209.43,442.07 209.43,485.34 225.65,485.34 225.65,420.44 206.72,420.44 182.38,463.71 182.38,420.44 "/>
   <polygon class="fil0 str0" points="241.88,420.44 241.88,485.34 255.41,485.34 255.41,458.3 279.75,458.3 279.75,485.34 293.27,485.34 293.27,420.44 279.75,420.44 279.75,447.48 255.41,447.48 255.41,420.44 "/>
   <polygon class="fil0 str0" points="306.79,485.34 323.02,485.34 331.13,463.71 352.77,463.71 360.88,485.34 379.81,485.34 350.06,401.5 336.54,401.5 "/>
   <polygon class="fil0 str0" points="333.84,450.19 352.77,450.19 344.66,420.44 "/>
   <path class="fil0 str0" d="M390.63 485.34l0 -62.2 37.86 0c0,0 0.01,10.82 -10.81,10.82 -10.82,0 -13.53,0 -13.53,0l0 51.38 -13.52 0z"/>
   <path class="fil0 str0" d="M436.61 525.91l0 -102.77c0,0 29.75,-8.11 45.98,5.41 16.22,13.52 10.81,51.39 -8.12,56.79l-24.34 0 0 27.05c0,0 0,13.52 -13.52,13.52z"/>
   <path class="fil0 str0" d="M450.13 471.82l0 -37.86c0,0 27.04,-2.7 27.04,13.52 0,16.23 -2.7,24.34 -16.22,24.34 -13.52,0 -10.82,0 -10.82,0z"/>
   <path class="fil0 str0" d="M533.97 420.44c0,0 27.05,0 27.05,32.45 0,32.45 -27.05,32.45 -27.05,32.45 0,0 -29.75,2.71 -29.75,-29.74 0,-32.46 29.75,-35.16 29.75,-35.16z"/>
   <path class="fil0 str0" d="M533.97 431.26c0,0 10.82,0 10.82,21.63 0,21.64 -8.11,21.64 -8.11,21.64 0,0 -16.13,6.16 -16.23,-21.64 -0.1,-27.8 13.52,-21.63 13.52,-21.63z"/>
  </g>
 </g>
</svg>
