<?xml version="1.0" encoding="UTF-8"?>
<!DOCTYPE svg PUBLIC "-//W3C//DTD SVG 1.1//EN" "http://www.w3.org/Graphics/SVG/1.1/DTD/svg11.dtd">
<!-- Creator: CorelDRAW -->
<svg xmlns="http://www.w3.org/2000/svg" xml:space="preserve" width="600px" height="600px" version="1.1" style="shape-rendering:geometricPrecision; text-rendering:geometricPrecision; image-rendering:optimizeQuality; fill-rule:evenodd; clip-rule:evenodd"
viewBox="0 0 600 600"
 xmlns:xlink="http://www.w3.org/1999/xlink"
 xmlns:xodm="http://www.corel.com/coreldraw/odm/2003">
 <defs>
  <style type="text/css">
   <![CDATA[
    .str3 {stroke:#00C4FF;stroke-width:4;stroke-miterlimit:22.9256}
    .str1 {stroke:#BFBFBF;stroke-width:4;stroke-miterlimit:22.9256}
    .str2 {stroke:#E62EE6;stroke-width:4;stroke-miterlimit:22.9256}
    .str0 {stroke:black;stroke-width:2;stroke-miterlimit:22.9256}
    .fil0 {fill:none}
    .fil2 {fill:#141414}
    .fil1 {fill:#141414}
   ]]>
  </style>
 </defs>
 <g id="Слой_x0020_1">
  <metadata id="CorelCorpID_0Corel-Layer"/>
  <path class="fil0 str0" d="M-563.94 68.74l-23.07 0c0,0 -2.14,2.57 -2.14,-8.54 0,-11.11 -0.85,-26.49 -0.85,-26.49l18.37 -35.89c0,0 -1.28,-2.99 12.82,-2.99 14.1,0 28.2,0.42 28.2,0.42 0,0 4.7,-0.85 4.27,8.98 -0.42,9.82 -0.42,44.86 -0.42,44.86 0,0 -23.93,-0.43 -26.49,0 -2.57,0.43 -10.69,5.98 -10.69,19.65z"/>
  <polygon class="fil0 str0" points="-520.35,-54.74 -520.35,49.94 -259.72,50.37 -260.14,-54.74 "/>
  <circle class="fil0 str0" cx="-546.85" cy="71.31" r="14.95"/>
  <circle class="fil0 str0" cx="-360.55" cy="71.31" r="14.95"/>
  <path class="fil0 str0" d="M-562.65 3.37l21.79 0c0,0 3.84,0 3.41,4.7 -0.42,4.7 1.29,11.11 -2.13,12.82 -3.42,1.71 -35.89,10.68 -35.89,10.68 0,0 -9.4,2.99 -5.56,-4.27 3.85,-7.26 11.11,-21.79 11.11,-21.79 0,0 2.14,-2.57 7.27,-2.14z"/>
  <path class="fil0 str0" d="M-534.45 50.37c0,0 6.83,5.56 7.69,13.67l6.83 0 0 4.7 132.46 0.43 8.12 0c0,0 1.7,-16.24 18.8,-16.24 17.09,0 18.8,17.95 18.8,17.95l13.67 0 0 -7.26 48.28 0 0.02 -13.28"/>
  <rect class="fil0 str1" x="243" y="335.88" width="230.05" height="151.12"/>
  <polygon class="fil0 str1" points="357.55,258.3 195.44,335.88 520.61,335.88 "/>
  <rect class="fil0 str1" x="328.01" y="362.19" width="31.71" height="46.55"/>
  <rect class="fil0 str1" x="274.25" y="362.19" width="31.71" height="46.55"/>
  <path class="fil1 str2" d="M362.06 508.81l21.19 0c0,0 1.97,2.35 1.97,-7.85 0,-10.2 0.78,-24.33 0.78,-24.33l-16.87 -32.97c0,0 1.17,-2.74 -11.78,-2.74 -12.95,0 -25.9,0.39 -25.9,0.39 0,0 -4.32,-0.79 -3.92,8.24 0.39,9.03 0.39,41.21 0.39,41.21 0,0 21.98,-0.4 24.33,0 2.36,0.39 9.81,5.49 9.81,18.05z"/>
  <polygon class="fil2 str2" points="322.03,395.39 322.03,491.54 82.64,491.93 83.04,395.39 "/>
  <circle class="fil0 str3" cx="346.36" cy="511.16" r="13.74"/>
  <circle class="fil0 str3" cx="175.26" cy="511.16" r="13.74"/>
  <path class="fil2 str2" d="M360.88 448.76l-20.01 0c0,0 -3.53,0 -3.14,4.32 0.39,4.32 -1.18,10.21 1.96,11.77 3.14,1.57 32.97,9.82 32.97,9.82 0,0 8.63,2.74 5.1,-3.93 -3.53,-6.67 -10.2,-20.01 -10.2,-20.01 0,0 -1.97,-2.36 -6.68,-1.97z"/>
  <path class="fil0 str2" d="M334.98 491.93c0,0 -6.28,5.11 -7.06,12.56l-6.28 0 0 4.32 -121.66 0.39 -7.45 0c0,0 -1.57,-14.91 -17.27,-14.91 -15.7,0 -17.27,16.48 -17.27,16.48l-12.56 0 0 -6.67 -44.34 0 -0.02 -12.2"/>
  <rect class="fil0 str1" x="401.82" y="427" width="31.71" height="60"/>
 </g>
</svg>
