<?xml version="1.0" encoding="UTF-8"?>
<!DOCTYPE svg PUBLIC "-//W3C//DTD SVG 1.1//EN" "http://www.w3.org/Graphics/SVG/1.1/DTD/svg11.dtd">
<!-- Creator: CorelDRAW -->
<svg xmlns="http://www.w3.org/2000/svg" xml:space="preserve" width="600px" height="300px" version="1.1" style="shape-rendering:geometricPrecision; text-rendering:geometricPrecision; image-rendering:optimizeQuality; fill-rule:evenodd; clip-rule:evenodd"
viewBox="0 0 600 300"
 xmlns:xlink="http://www.w3.org/1999/xlink"
 xmlns:xodm="http://www.corel.com/coreldraw/odm/2003">
 <defs>
  <style type="text/css">
   <![CDATA[
    .str0 {stroke:#23A741;stroke-width:3;stroke-miterlimit:22.9256}
    .str2 {stroke:#23A741;stroke-width:3;stroke-miterlimit:22.9256}
    .str1 {stroke:#BFBFBF;stroke-width:3;stroke-miterlimit:22.9256}
    .fil0 {fill:none}
    .fil1 {fill:#BFBFBF;fill-rule:nonzero}
   ]]>
  </style>
 </defs>
 <g id="Слой_x0020_1">
  <metadata id="CorelCorpID_0Corel-Layer"/>
  <g id="_2286647462080">
   <path class="fil0 str0" d="M151.86 119.71l-4.13 8.24 -60.44 -0.68c0,0 -15.8,0 -24.04,15.11 -8.25,15.11 -24.73,48.08 -24.73,48.08 0,0 -25.42,-14.26 -25.42,-45.33 0,-31.07 21.29,-44.65 35.72,-50.15 14.43,-5.49 43.27,-3.43 59.07,19.24l-11.67 0.68c0,0 -19.3,-20.04 -46.03,-10.99 -26.73,9.05 -34.67,40.49 -22.66,62.51l15.11 -28.85c0,0 12.36,-18.54 29.53,-18.54 17.18,0 79.69,0.68 79.69,0.68z"/>
   <path class="fil0 str1" d="M50.88 185.66l-4.81 8.24c0,0 13.74,6.18 31.6,1.37 17.86,-4.81 28.16,-13.74 34.35,-26.1 6.18,-12.36 5.49,-26.1 5.49,-26.1l-8.93 0 0 7.55 -24.04 0.69c0,0 0,-8.24 13.74,-8.93 13.74,-0.69 42.59,-0.69 42.59,-0.69l4.12 -6.87 -51.52 -0.68c0,0 -13.74,-0.69 -19.92,8.24 -6.18,8.93 -13.74,24.04 -13.74,24.04l16.49 0 4.12 -7.55 26.1 0c0,0 -6.18,14.42 -12.36,18.54 -6.19,4.12 -16.49,13.05 -31.6,10.99 -15.11,-2.06 -11.68,-2.74 -11.68,-2.74z"/>
  </g>
  <path class="fil0 str2" d="M173.84 160.24l0 -27.48c0,0 0.68,-2.06 2.06,-2.06 1.37,0 21.29,0 21.29,0l0 -7.55 -24.73 0c0,0 -9.61,0.69 -9.61,6.18 0,5.49 0,30.91 0,30.91l10.99 0z"/>
  <polygon class="fil0 str2" points="202.69,123.15 212.99,123.15 212.99,146.5 230.85,123.15 241.84,123.15 241.84,160.24 231.54,160.24 231.54,136.89 213.68,160.24 202.69,160.24 "/>
  <path class="fil0 str2" d="M249.4 160.24l0 -30.91c0,0 0,-6.18 8.93,-6.18 8.93,0 22.66,0 22.66,0 0,0 7.56,0.68 7.56,7.55 0,6.87 0,29.54 0,29.54l-10.3 0 0 -26.79c0,0 0,-2.75 -2.75,-2.75 -2.75,0 -13.74,0 -13.74,0 0,0 -1.37,0 -2.06,2.75l0 26.79 -10.3 0z"/>
  <path class="fil0 str2" d="M333.2 123.15l0 7.55 -24.04 0c0,0 -2.75,0 -3.44,2.75 -0.68,2.75 0,4.12 2.75,4.12 2.75,0 20.61,0 20.61,0l0 7.56 -22.67 0c0,0 -0.69,0.69 -0.69,2.75 0,2.06 0,4.12 2.06,4.12 2.06,0 25.42,0 25.42,0l0 8.24 -27.48 0c-7.9,0 -10.64,-1.72 -10.99,-11.68l0 -17.86c0,0 -1.37,-6.86 8.93,-7.55l29.54 0z"/>
  <path class="fil0 str2" d="M339.38 160.24l10.31 0 0 -10.99 21.29 0c0,0 9.62,-1.37 9.62,-6.18 0,-4.81 0,-11.68 0,-11.68 0,0 1.37,-8.24 -8.93,-8.24 -10.31,0 -22.67,0 -22.67,0 0,0 -9.62,-0.69 -9.62,7.55 0,8.25 0,29.54 0,29.54z"/>
  <path class="fil0 str2" d="M349.69 141.69l17.85 0c0,0 2.75,0 2.75,-3.43 0,-3.44 0,-4.81 0,-4.81 0,0 0,-2.75 -2.75,-2.75 -2.74,0 -14.42,0 -14.42,0 0,0 -3.43,0 -3.43,2.75 0,2.75 0,8.24 0,8.24z"/>
  <path class="fil0 str1" d="M392.27 160.24l10.31 0 0 -10.99 18.54 0 0 10.99 10.99 0 0 -29.54c0,0 -0.68,-7.55 -8.93,-7.55 -8.24,0 -21.29,0 -21.29,0 0,0 -8.93,0 -9.62,6.87l0 30.22z"/>
  <path class="fil0 str1" d="M402.58 141.69l18.54 0 0 -8.24c0,0 0,-2.75 -2.74,-2.75 -2.75,0 -13.06,0 -13.06,0 0,0 -2.74,0 -2.74,2.06 0,2.06 0,8.93 0,8.93z"/>
  <path class="fil0 str1" d="M438.98 160.24l0 -30.22c0,0 0.69,-6.87 8.25,-6.87 7.55,0 25.41,0 25.41,0 0,0 7.56,1.37 7.56,7.55 0,6.19 0.68,7.56 -2.75,10.99 0,0 2.75,0.69 2.75,5.5 0,4.81 0,5.49 0,5.49 0,0 -0.69,7.56 -7.56,7.56 -6.87,0 -33.66,0 -33.66,0z"/>
  <path class="fil0 str1" d="M449.29 138.26l17.86 0c0,0 2.06,-0.69 2.06,-2.75 0,-2.06 0,-4.81 -2.75,-4.81 -2.75,0 -14.43,0 -14.43,0 0,0 -2.74,0 -2.74,2.75 0,2.75 0,4.81 0,4.81z"/>
  <path class="fil0 str1" d="M449.29 152.68l18.54 0c0,0 2.06,0 2.06,-4.12 0,-4.12 -2.74,-3.43 -2.74,-3.43l-15.8 0c0,0 -2.06,0 -2.06,2.06 0,2.06 0,5.49 0,5.49z"/>
  <path class="fil0 str1" d="M486.38 160.24l0 -31.6c0,0 0.69,-5.49 10.99,-5.49 10.3,0 34.35,0 34.35,0 0,0 9.61,0 9.61,8.24 0,8.24 0,28.85 0,28.85l-10.3 0 0 -26.1c0,0 0,-3.44 -3.44,-3.44 -3.43,0 -7.55,0 -7.55,0 0,0 -1.38,0.69 -1.38,2.75 0,2.06 0.69,26.79 0.69,26.79l-10.99 0 0 -27.48c0,0 -0.69,-2.06 -2.06,-2.06 -1.37,0 -6.87,0 -6.87,0 0,0 -2.75,0 -2.75,2.75 0,2.75 0,26.79 0,26.79l-10.3 0z"/>
  <path class="fil0 str1" d="M566.75 160.24l13.05 0c0,0 7.56,-1.37 7.56,-7.56 0,-6.18 0,-20.6 0,-20.6 0,0 2.05,-8.93 -7.56,-8.93 -9.62,0 -22.67,0 -22.67,0 0,0 -8.93,0 -8.93,6.18 0,6.18 0,21.98 0,21.98 0,0 -0.69,8.93 8.93,8.93 9.62,0 9.62,0 9.62,0z"/>
  <path class="fil0 str1" d="M568.12 130.7l6.87 0c0,0 2.75,-1.37 2.75,4.81 0,6.18 0,13.05 0,13.05 0,0 0.68,3.44 -3.44,3.44 -4.12,0 -13.05,0 -13.05,0 0,0 -3.43,0.68 -3.43,-3.44 0,-4.12 0,-15.8 0,-15.8 0,0 0,-2.06 4.81,-2.06 4.8,0 5.49,0 5.49,0z"/>
  <path class="fil1" d="M169.77 181.01l2.01 0.61c-0.31,1.13 -0.82,1.97 -1.54,2.52 -0.72,0.54 -1.62,0.81 -2.72,0.81 -1.36,0 -2.48,-0.46 -3.36,-1.39 -0.87,-0.93 -1.31,-2.2 -1.31,-3.82 0,-1.7 0.44,-3.03 1.32,-3.97 0.88,-0.95 2.04,-1.42 3.47,-1.42 1.26,0 2.28,0.37 3.06,1.12 0.47,0.44 0.81,1.06 1.05,1.89l-2.05 0.48c-0.12,-0.53 -0.37,-0.95 -0.76,-1.25 -0.38,-0.31 -0.85,-0.46 -1.4,-0.46 -0.76,0 -1.38,0.27 -1.85,0.81 -0.48,0.55 -0.71,1.43 -0.71,2.65 0,1.29 0.23,2.22 0.7,2.77 0.47,0.55 1.07,0.82 1.82,0.82 0.55,0 1.02,-0.17 1.42,-0.52 0.39,-0.35 0.68,-0.9 0.85,-1.65z"/>
  <polygon id="_1" class="fil1" points="176.69,184.78 176.69,174.54 184.28,174.54 184.28,176.27 178.77,176.27 178.77,178.54 183.89,178.54 183.89,180.28 178.77,180.28 178.77,183.05 184.48,183.05 184.48,184.78 "/>
  <polygon id="_2" class="fil1" points="191.68,184.78 191.68,176.27 188.65,176.27 188.65,174.54 196.78,174.54 196.78,176.27 193.76,176.27 193.76,184.78 "/>
  <path id="_3" class="fil1" d="M201.3 174.54l2.08 0 0 4.09 2.76 0c1.3,0 2.25,0.31 2.83,0.92 0.58,0.61 0.87,1.34 0.87,2.19 0,0.7 -0.17,1.3 -0.53,1.78 -0.35,0.5 -0.75,0.83 -1.21,1 -0.45,0.17 -1.11,0.26 -1.96,0.26l-4.84 0 0 -10.24zm2.08 8.51l2.01 0c0.65,0 1.1,-0.03 1.35,-0.09 0.25,-0.06 0.48,-0.21 0.68,-0.43 0.19,-0.22 0.29,-0.49 0.29,-0.82 0,-0.46 -0.17,-0.8 -0.5,-1.02 -0.34,-0.22 -0.92,-0.33 -1.73,-0.33l-2.1 0 0 2.69z"/>
  <path id="_4" class="fil1" d="M235.13 184.78l-2.24 0 -0.88 -2.33 -4.11 0 -0.85 2.33 -2.2 0 3.98 -10.24 2.19 0 4.11 10.24zm-3.8 -4.06l-1.42 -3.79 -1.38 3.79 2.8 0z"/>
  <path id="_5" class="fil1" d="M239.37 174.54l4.1 0c0.81,0 1.42,0.03 1.81,0.1 0.4,0.07 0.76,0.21 1.07,0.42 0.32,0.22 0.58,0.5 0.79,0.85 0.21,0.36 0.32,0.76 0.32,1.2 0,0.48 -0.13,0.92 -0.39,1.32 -0.26,0.4 -0.61,0.7 -1.05,0.9 0.62,0.18 1.1,0.49 1.44,0.93 0.33,0.44 0.5,0.95 0.5,1.55 0,0.46 -0.11,0.92 -0.33,1.36 -0.22,0.44 -0.51,0.79 -0.89,1.06 -0.37,0.26 -0.83,0.42 -1.39,0.48 -0.34,0.04 -1.17,0.06 -2.49,0.07l-3.49 0 0 -10.24zm2.08 1.7l0 2.36 1.35 0c0.8,0 1.3,-0.01 1.5,-0.03 0.35,-0.04 0.63,-0.17 0.84,-0.37 0.2,-0.2 0.3,-0.47 0.3,-0.79 0,-0.32 -0.09,-0.58 -0.26,-0.77 -0.18,-0.2 -0.44,-0.32 -0.78,-0.36 -0.21,-0.03 -0.8,-0.04 -1.77,-0.04l-1.18 0zm0 4.06l0 2.75 1.91 0c0.75,0 1.22,-0.02 1.42,-0.06 0.31,-0.06 0.56,-0.19 0.75,-0.41 0.2,-0.22 0.29,-0.51 0.29,-0.87 0,-0.31 -0.07,-0.57 -0.22,-0.79 -0.15,-0.21 -0.36,-0.37 -0.65,-0.47 -0.28,-0.1 -0.89,-0.15 -1.83,-0.15l-1.67 0z"/>
  <polygon id="_6" class="fil1" points="254.6,184.78 254.6,176.27 251.57,176.27 251.57,174.54 259.7,174.54 259.7,176.27 256.68,176.27 256.68,184.78 "/>
  <path id="_7" class="fil1" d="M263.4 179.72c0,-1.04 0.15,-1.92 0.47,-2.63 0.23,-0.52 0.55,-0.99 0.95,-1.41 0.4,-0.41 0.84,-0.72 1.32,-0.92 0.64,-0.27 1.38,-0.41 2.21,-0.41 1.52,0 2.72,0.47 3.63,1.41 0.91,0.94 1.36,2.24 1.36,3.92 0,1.65 -0.45,2.95 -1.35,3.88 -0.9,0.94 -2.1,1.41 -3.61,1.41 -1.52,0 -2.74,-0.47 -3.63,-1.4 -0.9,-0.93 -1.35,-2.21 -1.35,-3.85zm2.13 -0.07c0,1.16 0.27,2.04 0.8,2.65 0.54,0.59 1.22,0.89 2.05,0.89 0.83,0 1.5,-0.29 2.03,-0.89 0.53,-0.59 0.8,-1.49 0.8,-2.67 0,-1.18 -0.26,-2.06 -0.78,-2.64 -0.51,-0.57 -1.2,-0.86 -2.05,-0.86 -0.86,0 -1.55,0.29 -2.07,0.87 -0.52,0.59 -0.78,1.47 -0.78,2.65z"/>
  <polygon id="_8" class="fil1" points="278.07,184.78 278.07,174.54 281.17,174.54 283.01,181.53 284.82,174.54 287.94,174.54 287.94,184.78 286.02,184.78 286.01,176.72 283.99,184.78 282,184.78 279.99,176.72 279.98,184.78 "/>
  <path id="_9" class="fil1" d="M302.38 184.78l-2.23 0 -0.89 -2.33 -4.1 0 -0.86 2.33 -2.19 0 3.98 -10.24 2.19 0 4.1 10.24zm-3.79 -4.06l-1.42 -3.79 -1.38 3.79 2.8 0z"/>
  <polygon id="_10" class="fil1" points="306.73,174.54 313.67,174.54 313.67,176.27 308.8,176.27 308.8,184.78 306.73,184.78 "/>
  <path id="_11" class="fil1" d="M326.21 184.78l-2.24 0 -0.88 -2.33 -4.11 0 -0.85 2.33 -2.2 0 3.98 -10.24 2.19 0 4.11 10.24zm-3.79 -4.06l-1.43 -3.79 -1.38 3.79 2.81 0z"/>
  <path id="_12" class="fil1" d="M331.91 177.33l-2.02 -0.47c0.44,-1.67 1.67,-2.51 3.7,-2.51 1.21,0 2.11,0.27 2.73,0.8 0.61,0.53 0.92,1.15 0.92,1.86 0,0.49 -0.15,0.93 -0.42,1.33 -0.28,0.39 -0.7,0.74 -1.26,1.04 0.68,0.23 1.19,0.56 1.53,0.99 0.33,0.43 0.5,0.95 0.5,1.58 0,0.9 -0.33,1.63 -0.99,2.19 -0.65,0.55 -1.64,0.83 -2.96,0.83 -1.07,0 -1.91,-0.18 -2.53,-0.54 -0.62,-0.36 -1.09,-1.02 -1.4,-2.01l1.89 -0.61c0.19,0.61 0.46,1.02 0.78,1.2 0.32,0.18 0.73,0.27 1.2,0.27 0.66,0 1.13,-0.14 1.43,-0.42 0.3,-0.29 0.45,-0.61 0.45,-0.98 0,-0.42 -0.17,-0.76 -0.51,-1.02 -0.33,-0.26 -0.84,-0.38 -1.52,-0.38l-0.47 0 0 -1.55 0.23 0c0.63,0 1.12,-0.14 1.45,-0.43 0.34,-0.28 0.51,-0.66 0.51,-1.13 0,-0.37 -0.14,-0.69 -0.41,-0.95 -0.27,-0.25 -0.66,-0.38 -1.17,-0.38 -0.86,0 -1.42,0.43 -1.66,1.29z"/>
  <polygon id="_13" class="fil1" points="342.59,174.54 344.52,174.54 344.52,181.36 348.67,174.54 350.73,174.54 350.73,184.78 348.8,184.78 348.8,178.07 344.65,184.78 342.59,184.78 "/>
  <polygon id="_14" class="fil1" points="355.98,184.78 355.98,174.54 358.06,174.54 358.06,178.57 362.09,178.57 362.09,174.54 364.17,174.54 364.17,184.78 362.09,184.78 362.09,180.3 358.06,180.3 358.06,184.78 "/>
  <path id="_15" class="fil1" d="M369.03 179.72c0,-1.04 0.16,-1.92 0.47,-2.63 0.23,-0.52 0.55,-0.99 0.95,-1.41 0.41,-0.41 0.85,-0.72 1.33,-0.92 0.64,-0.27 1.37,-0.41 2.21,-0.41 1.51,0 2.72,0.47 3.62,1.41 0.91,0.94 1.36,2.24 1.36,3.92 0,1.65 -0.45,2.95 -1.35,3.88 -0.89,0.94 -2.1,1.41 -3.6,1.41 -1.53,0 -2.74,-0.47 -3.64,-1.4 -0.9,-0.93 -1.35,-2.21 -1.35,-3.85zm2.13 -0.07c0,1.16 0.27,2.04 0.81,2.65 0.53,0.59 1.22,0.89 2.04,0.89 0.83,0 1.51,-0.29 2.04,-0.89 0.53,-0.59 0.79,-1.49 0.79,-2.67 0,-1.18 -0.25,-2.06 -0.77,-2.64 -0.52,-0.57 -1.2,-0.86 -2.06,-0.86 -0.85,0 -1.54,0.29 -2.06,0.87 -0.53,0.59 -0.79,1.47 -0.79,2.65z"/>
  <path id="_16" class="fil1" d="M383.73 174.54l4.1 0c0.81,0 1.41,0.03 1.81,0.1 0.4,0.07 0.76,0.21 1.07,0.42 0.32,0.22 0.58,0.5 0.79,0.85 0.21,0.36 0.31,0.76 0.31,1.2 0,0.48 -0.13,0.92 -0.38,1.32 -0.26,0.4 -0.61,0.7 -1.05,0.9 0.62,0.18 1.1,0.49 1.43,0.93 0.34,0.44 0.5,0.95 0.5,1.55 0,0.46 -0.1,0.92 -0.32,1.36 -0.22,0.44 -0.51,0.79 -0.89,1.06 -0.37,0.26 -0.84,0.42 -1.39,0.48 -0.34,0.04 -1.17,0.06 -2.49,0.07l-3.49 0 0 -10.24zm2.07 1.7l0 2.36 1.36 0c0.8,0 1.3,-0.01 1.5,-0.03 0.35,-0.04 0.63,-0.17 0.83,-0.37 0.21,-0.2 0.31,-0.47 0.31,-0.79 0,-0.32 -0.09,-0.58 -0.27,-0.77 -0.17,-0.2 -0.43,-0.32 -0.77,-0.36 -0.21,-0.03 -0.8,-0.04 -1.77,-0.04l-1.19 0zm0 4.06l0 2.75 1.92 0c0.74,0 1.22,-0.02 1.42,-0.06 0.31,-0.06 0.56,-0.19 0.75,-0.41 0.19,-0.22 0.29,-0.51 0.29,-0.87 0,-0.31 -0.07,-0.57 -0.22,-0.79 -0.15,-0.21 -0.37,-0.37 -0.65,-0.47 -0.28,-0.1 -0.89,-0.15 -1.83,-0.15l-1.68 0z"/>
  <polygon id="_17" class="fil1" points="408.44,174.54 410.37,174.54 410.37,181.36 414.52,174.54 416.58,174.54 416.58,184.78 414.65,184.78 414.65,178.07 410.5,184.78 408.44,184.78 "/>
  <path id="_18" class="fil1" d="M442.28 184.78l-2.23 0 -0.89 -2.33 -4.11 0 -0.85 2.33 -2.19 0 3.98 -10.24 2.19 0 4.1 10.24zm-3.79 -4.06l-1.42 -3.79 -1.39 3.79 2.81 0z"/>
  <path id="_19" class="fil1" d="M446.53 174.54l4.09 0c0.82,0 1.42,0.03 1.82,0.1 0.4,0.07 0.75,0.21 1.07,0.42 0.31,0.22 0.58,0.5 0.79,0.85 0.21,0.36 0.31,0.76 0.31,1.2 0,0.48 -0.13,0.92 -0.39,1.32 -0.25,0.4 -0.6,0.7 -1.05,0.9 0.63,0.18 1.1,0.49 1.44,0.93 0.33,0.44 0.5,0.95 0.5,1.55 0,0.46 -0.11,0.92 -0.32,1.36 -0.22,0.44 -0.52,0.79 -0.89,1.06 -0.38,0.26 -0.84,0.42 -1.39,0.48 -0.34,0.04 -1.18,0.06 -2.5,0.07l-3.48 0 0 -10.24zm2.07 1.7l0 2.36 1.36 0c0.8,0 1.3,-0.01 1.5,-0.03 0.35,-0.04 0.63,-0.17 0.83,-0.37 0.2,-0.2 0.3,-0.47 0.3,-0.79 0,-0.32 -0.09,-0.58 -0.26,-0.77 -0.17,-0.2 -0.43,-0.32 -0.78,-0.36 -0.2,-0.03 -0.79,-0.04 -1.76,-0.04l-1.19 0zm0 4.06l0 2.75 1.92 0c0.74,0 1.22,-0.02 1.42,-0.06 0.3,-0.06 0.55,-0.19 0.75,-0.41 0.19,-0.22 0.29,-0.51 0.29,-0.87 0,-0.31 -0.07,-0.57 -0.23,-0.79 -0.14,-0.21 -0.36,-0.37 -0.64,-0.47 -0.28,-0.1 -0.9,-0.15 -1.84,-0.15l-1.67 0z"/>
  <polygon id="_20" class="fil1" points="461.76,184.78 461.76,176.27 458.72,176.27 458.72,174.54 466.85,174.54 466.85,176.27 463.83,176.27 463.83,184.78 "/>
  <path id="_21" class="fil1" d="M470.55 179.72c0,-1.04 0.16,-1.92 0.47,-2.63 0.23,-0.52 0.55,-0.99 0.95,-1.41 0.41,-0.41 0.85,-0.72 1.33,-0.92 0.64,-0.27 1.37,-0.41 2.21,-0.41 1.51,0 2.72,0.47 3.63,1.41 0.9,0.94 1.35,2.24 1.35,3.92 0,1.65 -0.45,2.95 -1.35,3.88 -0.89,0.94 -2.1,1.41 -3.6,1.41 -1.53,0 -2.74,-0.47 -3.64,-1.4 -0.9,-0.93 -1.35,-2.21 -1.35,-3.85zm2.13 -0.07c0,1.16 0.27,2.04 0.81,2.65 0.53,0.59 1.22,0.89 2.04,0.89 0.83,0 1.51,-0.29 2.04,-0.89 0.53,-0.59 0.79,-1.49 0.79,-2.67 0,-1.18 -0.25,-2.06 -0.77,-2.64 -0.52,-0.57 -1.2,-0.86 -2.06,-0.86 -0.85,0 -1.54,0.29 -2.06,0.87 -0.53,0.59 -0.79,1.47 -0.79,2.65z"/>
  <path id="_22" class="fil1" d="M491.8 181.01l2.01 0.61c-0.31,1.13 -0.82,1.97 -1.54,2.52 -0.72,0.54 -1.62,0.81 -2.72,0.81 -1.36,0 -2.48,-0.46 -3.36,-1.39 -0.87,-0.93 -1.31,-2.2 -1.31,-3.82 0,-1.7 0.44,-3.03 1.32,-3.97 0.88,-0.95 2.04,-1.42 3.47,-1.42 1.26,0 2.28,0.37 3.06,1.12 0.47,0.44 0.81,1.06 1.05,1.89l-2.05 0.48c-0.12,-0.53 -0.37,-0.95 -0.76,-1.25 -0.38,-0.31 -0.85,-0.46 -1.4,-0.46 -0.76,0 -1.38,0.27 -1.85,0.81 -0.48,0.55 -0.71,1.43 -0.71,2.65 0,1.29 0.23,2.22 0.7,2.77 0.47,0.55 1.07,0.82 1.82,0.82 0.55,0 1.02,-0.17 1.42,-0.52 0.39,-0.35 0.68,-0.9 0.85,-1.65z"/>
  <polygon id="_23" class="fil1" points="498.72,184.78 498.72,174.54 506.31,174.54 506.31,176.27 500.8,176.27 500.8,178.54 505.92,178.54 505.92,180.28 500.8,180.28 500.8,183.05 506.51,183.05 506.51,184.78 "/>
  <path id="_24" class="fil1" d="M511.41 184.78l0 -10.24 3.32 0c1.25,0 2.07,0.05 2.45,0.15 0.59,0.16 1.08,0.49 1.48,1 0.39,0.52 0.59,1.18 0.59,2 0,0.63 -0.12,1.16 -0.34,1.59 -0.23,0.43 -0.52,0.76 -0.87,1.01 -0.35,0.24 -0.71,0.4 -1.07,0.48 -0.49,0.1 -1.21,0.15 -2.14,0.15l-1.35 0 0 3.86 -2.07 0zm2.07 -8.51l0 2.92 1.13 0c0.81,0 1.36,-0.06 1.63,-0.16 0.27,-0.11 0.49,-0.28 0.64,-0.51 0.16,-0.23 0.24,-0.49 0.24,-0.8 0,-0.37 -0.11,-0.68 -0.33,-0.92 -0.22,-0.25 -0.49,-0.4 -0.83,-0.46 -0.24,-0.05 -0.74,-0.07 -1.48,-0.07l-1 0z"/>
  <path id="_25" class="fil1" d="M524.09 174.54l4.1 0c0.81,0 1.42,0.03 1.82,0.1 0.4,0.07 0.75,0.21 1.07,0.42 0.31,0.22 0.57,0.5 0.78,0.85 0.21,0.36 0.32,0.76 0.32,1.2 0,0.48 -0.13,0.92 -0.39,1.32 -0.26,0.4 -0.61,0.7 -1.05,0.9 0.62,0.18 1.1,0.49 1.44,0.93 0.33,0.44 0.5,0.95 0.5,1.55 0,0.46 -0.11,0.92 -0.33,1.36 -0.21,0.44 -0.51,0.79 -0.88,1.06 -0.38,0.26 -0.84,0.42 -1.39,0.48 -0.35,0.04 -1.18,0.06 -2.5,0.07l-3.49 0 0 -10.24zm2.08 1.7l0 2.36 1.35 0c0.81,0 1.31,-0.01 1.5,-0.03 0.36,-0.04 0.63,-0.17 0.84,-0.37 0.2,-0.2 0.3,-0.47 0.3,-0.79 0,-0.32 -0.09,-0.58 -0.26,-0.77 -0.18,-0.2 -0.44,-0.32 -0.78,-0.36 -0.2,-0.03 -0.79,-0.04 -1.76,-0.04l-1.19 0zm0 4.06l0 2.75 1.92 0c0.74,0 1.21,-0.02 1.41,-0.06 0.31,-0.06 0.56,-0.19 0.76,-0.41 0.19,-0.22 0.29,-0.51 0.29,-0.87 0,-0.31 -0.08,-0.57 -0.23,-0.79 -0.15,-0.21 -0.36,-0.37 -0.64,-0.47 -0.29,-0.1 -0.9,-0.15 -1.84,-0.15l-1.67 0z"/>
  <polygon id="_26" class="fil1" points="537.6,174.54 539.53,174.54 539.53,181.36 543.68,174.54 545.74,174.54 545.74,184.78 543.81,184.78 543.81,178.07 539.66,184.78 537.6,184.78 "/>
  <path id="_27" class="fil1" d="M557.55 181.01l2 0.61c-0.31,1.13 -0.82,1.97 -1.53,2.52 -0.72,0.54 -1.63,0.81 -2.73,0.81 -1.36,0 -2.48,-0.46 -3.35,-1.39 -0.88,-0.93 -1.32,-2.2 -1.32,-3.82 0,-1.7 0.44,-3.03 1.32,-3.97 0.88,-0.95 2.04,-1.42 3.48,-1.42 1.25,0 2.27,0.37 3.05,1.12 0.47,0.44 0.82,1.06 1.05,1.89l-2.04 0.48c-0.12,-0.53 -0.38,-0.95 -0.76,-1.25 -0.39,-0.31 -0.86,-0.46 -1.4,-0.46 -0.77,0 -1.38,0.27 -1.86,0.81 -0.47,0.55 -0.71,1.43 -0.71,2.65 0,1.29 0.24,2.22 0.7,2.77 0.47,0.55 1.08,0.82 1.82,0.82 0.55,0 1.03,-0.17 1.42,-0.52 0.4,-0.35 0.69,-0.9 0.86,-1.65z"/>
  <path id="_28" class="fil1" d="M563.68 179.72c0,-1.04 0.16,-1.92 0.47,-2.63 0.24,-0.52 0.55,-0.99 0.96,-1.41 0.4,-0.41 0.84,-0.72 1.32,-0.92 0.64,-0.27 1.38,-0.41 2.21,-0.41 1.51,0 2.72,0.47 3.63,1.41 0.9,0.94 1.36,2.24 1.36,3.92 0,1.65 -0.45,2.95 -1.35,3.88 -0.9,0.94 -2.11,1.41 -3.61,1.41 -1.52,0 -2.74,-0.47 -3.64,-1.4 -0.9,-0.93 -1.35,-2.21 -1.35,-3.85zm2.14 -0.07c0,1.16 0.26,2.04 0.8,2.65 0.54,0.59 1.22,0.89 2.05,0.89 0.82,0 1.5,-0.29 2.03,-0.89 0.53,-0.59 0.8,-1.49 0.8,-2.67 0,-1.18 -0.26,-2.06 -0.78,-2.64 -0.51,-0.57 -1.2,-0.86 -2.05,-0.86 -0.86,0 -1.55,0.29 -2.07,0.87 -0.52,0.59 -0.78,1.47 -0.78,2.65z"/>
  <path id="_29" class="fil1" d="M578.38 174.54l4.1 0c0.81,0 1.42,0.03 1.81,0.1 0.41,0.07 0.76,0.21 1.08,0.42 0.31,0.22 0.57,0.5 0.78,0.85 0.21,0.36 0.32,0.76 0.32,1.2 0,0.48 -0.13,0.92 -0.39,1.32 -0.26,0.4 -0.61,0.7 -1.05,0.9 0.62,0.18 1.1,0.49 1.44,0.93 0.33,0.44 0.5,0.95 0.5,1.55 0,0.46 -0.11,0.92 -0.33,1.36 -0.21,0.44 -0.51,0.79 -0.89,1.06 -0.37,0.26 -0.83,0.42 -1.38,0.48 -0.35,0.04 -1.18,0.06 -2.5,0.07l-3.49 0 0 -10.24zm2.08 1.7l0 2.36 1.35 0c0.81,0 1.31,-0.01 1.5,-0.03 0.36,-0.04 0.63,-0.17 0.84,-0.37 0.2,-0.2 0.3,-0.47 0.3,-0.79 0,-0.32 -0.09,-0.58 -0.26,-0.77 -0.18,-0.2 -0.44,-0.32 -0.78,-0.36 -0.21,-0.03 -0.79,-0.04 -1.76,-0.04l-1.19 0zm0 4.06l0 2.75 1.91 0c0.75,0 1.22,-0.02 1.42,-0.06 0.31,-0.06 0.56,-0.19 0.76,-0.41 0.19,-0.22 0.29,-0.51 0.29,-0.87 0,-0.31 -0.08,-0.57 -0.23,-0.79 -0.15,-0.21 -0.36,-0.37 -0.64,-0.47 -0.29,-0.1 -0.9,-0.15 -1.84,-0.15l-1.67 0z"/>
 </g>
</svg>
