<?xml version="1.0" encoding="UTF-8"?>
<!DOCTYPE svg PUBLIC "-//W3C//DTD SVG 1.1//EN" "http://www.w3.org/Graphics/SVG/1.1/DTD/svg11.dtd">
<!-- Creator: CorelDRAW -->
<svg xmlns="http://www.w3.org/2000/svg" xml:space="preserve" width="600px" height="600px" version="1.1" style="shape-rendering:geometricPrecision; text-rendering:geometricPrecision; image-rendering:optimizeQuality; fill-rule:evenodd; clip-rule:evenodd"
viewBox="0 0 600 600"
 xmlns:xlink="http://www.w3.org/1999/xlink"
 xmlns:xodm="http://www.corel.com/coreldraw/odm/2003">
 <defs>
  <style type="text/css">
   <![CDATA[
    .str0 {stroke:#00C4FF;stroke-miterlimit:22.9256}
    .str1 {stroke:#FF4E33;stroke-miterlimit:22.9256}
    .fil0 {fill:none}
    .fil1 {fill:none;fill-rule:nonzero}
   ]]>
  </style>
 </defs>
 <g id="Слой_x0020_1">
  <metadata id="CorelCorpID_0Corel-Layer"/>
  <g id="_3059220183968">
   <path class="fil0 str0" d="M362.03 443.06l1.98 18.38c0,0 82,-6.42 95.96,-21.23l-0.17 13.32 36.36 -34.36 -47.13 2.83 7.93 6.68c0,0 -18.41,18 -94.93,14.38z"/>
   <polygon class="fil0 str0" points="376.9,475.85 364.42,520.37 504.88,559.74 529.66,471.34 480.92,457.67 475.21,478.02 428.94,465.05 422.35,488.58 "/>
   <line class="fil0 str0" x1="422.35" y1="488.58" x2="409.86" y2= "533.11" />
   <line class="fil0 str0" x1="475.21" y1="478.02" x2="456.13" y2= "546.08" />
  </g>
  <g id="_3059220183632">
   <path class="fil0 str1" d="M300.18 297.31l7.62 8.54c0,0 38.96,-32.82 40.64,-45.31l4.72 6.77 5.91 -30.42 -22.71 18.43 6.41 0.5c0,0 -2.78,15.71 -42.59,41.49z"/>
   <polygon class="fil0 str1" points="319.49,308.45 329.27,335.36 414.17,304.5 394.75,251.06 365.28,261.77 369.76,274.07 341.79,284.24 346.96,298.46 "/>
   <line class="fil0 str1" x1="346.96" y1="298.46" x2="356.74" y2= "325.37" />
   <line class="fil0 str1" x1="369.76" y1="274.07" x2="384.71" y2= "315.21" />
  </g>
  <g id="_3059220183488">
   <path class="fil0 str1" d="M503.06 375.58l24.89 0c0,0 4.22,0.65 4.22,-3.83 0,-4.48 0,-30.48 0,-30.48 0,0 0.38,-4.17 -3.85,-4.17l-24.07 0c-0.03,-5.39 2.19,-4.6 2.19,-4.6 0,0 13.59,-0.2 17.11,-0.2 3.52,0 3.01,-1.86 3.01,-4.85 0,-2.98 -2.74,-2.69 -2.74,-2.69l-45.46 0c-2.88,0 -2.88,1.45 -2.88,1.45 0,0 0,2.24 0,4.11 0,1.86 2.25,1.78 2.25,1.78 0,0 12.86,0 15.41,0 2.54,0 1.91,5 1.91,5l-23.96 0c0,0 -3.74,-0.69 -3.74,4.54 0,5.22 0,30.23 0,30.23 0,0 -0.87,3.71 3.11,3.71 3.99,0 32.6,0 32.6,0z"/>
   <path class="fil1 str1" d="M489.69 364.22l0 -3.95 -7.19 0 0 -1.88 7.56 -10.73 1.67 0 0 10.73 2.24 0 0 1.88 -2.24 0 0 3.95 -2.04 0zm0 -5.83l0 -7.45 -5.19 7.45 5.19 0z"/>
   <path id="_1" class="fil1 str1" d="M496.05 359.87l2.13 -0.16c0.16,1.04 0.53,1.82 1.1,2.34 0.57,0.52 1.27,0.78 2.09,0.78 0.99,0 1.82,-0.37 2.49,-1.1 0.67,-0.74 1.01,-1.72 1.01,-2.94 0,-1.16 -0.32,-2.07 -0.97,-2.74 -0.64,-0.67 -1.49,-1.01 -2.55,-1.01 -0.66,0 -1.25,0.15 -1.78,0.45 -0.52,0.3 -0.93,0.69 -1.23,1.17l-1.91 -0.28 1.59 -8.51 8.21 0 0 1.95 -6.59 0 -0.88 4.46c0.99,-0.69 2.03,-1.04 3.12,-1.04 1.44,0 2.66,0.5 3.65,1.5 0.99,1 1.49,2.29 1.49,3.86 0,1.5 -0.44,2.8 -1.31,3.89 -1.06,1.34 -2.51,2.01 -4.34,2.01 -1.51,0 -2.73,-0.42 -3.68,-1.27 -0.96,-0.84 -1.5,-1.96 -1.64,-3.36z"/>
   <path id="_2" class="fil1 str1" d="M508.92 356.05c0,-1.95 0.2,-3.53 0.6,-4.73 0.4,-1.2 1,-2.12 1.79,-2.76 0.79,-0.64 1.79,-0.96 2.99,-0.96 0.89,0 1.67,0.17 2.34,0.53 0.67,0.36 1.23,0.88 1.66,1.55 0.43,0.67 0.77,1.49 1.02,2.46 0.25,0.97 0.37,2.27 0.37,3.91 0,1.94 -0.2,3.52 -0.6,4.71 -0.39,1.2 -0.99,2.12 -1.78,2.77 -0.79,0.65 -1.8,0.97 -3.01,0.97 -1.59,0 -2.84,-0.57 -3.75,-1.7 -1.09,-1.39 -1.63,-3.64 -1.63,-6.75zm2.08 0.01c0,2.72 0.31,4.54 0.95,5.43 0.64,0.9 1.42,1.34 2.35,1.34 0.94,0 1.72,-0.45 2.36,-1.34 0.63,-0.91 0.95,-2.71 0.95,-5.43 0,-2.72 -0.32,-4.54 -0.95,-5.43 -0.63,-0.9 -1.43,-1.35 -2.38,-1.35 -0.93,0 -1.68,0.4 -2.24,1.19 -0.7,1.01 -1.04,2.87 -1.04,5.59z"/>
  </g>
  <g id="_3059220181808">
   <path class="fil0 str0" d="M448.84 172.06l32.35 15.27c0,0 5.08,3.44 7.83,-2.38 2.75,-5.83 18.7,-39.63 18.7,-39.63 0,0 3.06,-5.19 -2.44,-7.78l-31.28 -14.77c3.26,-7.02 5.66,-4.64 5.66,-4.64 0,0 17.78,8.08 22.37,10.24 4.58,2.17 5.05,-0.56 6.88,-4.45 1.83,-3.88 -1.9,-5.18 -1.9,-5.18l-59.1 -27.89c-3.76,-1.77 -4.65,0.11 -4.65,0.11 0,0 -1.37,2.91 -2.52,5.34 -1.14,2.42 1.84,3.7 1.84,3.7 0,0 16.72,7.9 20.03,9.46 3.31,1.56 -0.57,7.67 -0.57,7.67l-31.16 -14.71c0,0 -4.44,-3.18 -7.65,3.61 -3.2,6.79 -18.55,39.31 -18.55,39.31 0,0 -3.4,4.28 1.78,6.72 5.18,2.44 42.38,20 42.38,20z"/>
   <path class="fil1 str0" d="M438.4 149.16l2.47 -5.15 -9.32 -4.45 1.16 -2.42 16.45 -9.22 2.15 1.03 -6.66 13.91 2.9 1.38 -1.15 2.42 -2.9 -1.38 -2.46 5.13 -2.64 -1.25zm3.62 -7.56l4.63 -9.68 -11.35 6.47 6.72 3.21z"/>
   <path id="_1_0" class="fil1 str0" d="M449.37 147.38l2.87 1.09c-0.44,1.45 -0.44,2.69 -0.02,3.72 0.42,1.04 1.16,1.81 2.22,2.31 1.26,0.61 2.56,0.64 3.9,0.11 1.34,-0.54 2.39,-1.6 3.14,-3.18 0.72,-1.5 0.86,-2.89 0.44,-4.16 -0.44,-1.28 -1.33,-2.24 -2.7,-2.89 -0.85,-0.4 -1.7,-0.58 -2.57,-0.52 -0.87,0.05 -1.64,0.3 -2.33,0.73l-2.32 -1.51 7.35 -10.03 10.68 5.11 -1.21 2.52 -8.57 -4.1 -3.91 5.21c1.72,-0.28 3.29,-0.08 4.7,0.6 1.88,0.89 3.14,2.3 3.81,4.21 0.67,1.92 0.51,3.9 -0.46,5.94 -0.93,1.94 -2.3,3.35 -4.11,4.22 -2.21,1.08 -4.5,1.05 -6.88,-0.09 -1.96,-0.94 -3.28,-2.24 -4,-3.93 -0.71,-1.68 -0.72,-3.47 -0.03,-5.36z"/>
   <path id="_2_1" class="fil1 str0" d="M468.46 150.31c1.21,-2.54 2.45,-4.46 3.71,-5.75 1.27,-1.3 2.61,-2.12 4.04,-2.47 1.43,-0.34 2.93,-0.14 4.5,0.6 1.15,0.55 2.04,1.27 2.69,2.15 0.65,0.87 1.05,1.89 1.19,3.03 0.15,1.15 0.09,2.42 -0.19,3.83 -0.28,1.41 -0.93,3.18 -1.95,5.31 -1.2,2.51 -2.43,4.43 -3.69,5.72 -1.26,1.3 -2.6,2.13 -4.03,2.48 -1.44,0.35 -2.94,0.15 -4.51,-0.6 -2.07,-0.99 -3.34,-2.51 -3.81,-4.56 -0.56,-2.46 0.12,-5.71 2.05,-9.74zm2.71 1.3c-1.69,3.52 -2.4,6.06 -2.13,7.63 0.27,1.55 1,2.63 2.22,3.2 1.21,0.58 2.5,0.48 3.89,-0.3 1.38,-0.77 2.92,-2.92 4.6,-6.43 1.69,-3.53 2.4,-6.08 2.13,-7.63 -0.27,-1.56 -1.02,-2.63 -2.25,-3.22 -1.21,-0.58 -2.42,-0.53 -3.63,0.15 -1.54,0.88 -3.14,3.07 -4.83,6.6z"/>
  </g>
  <g id="_3059220182192">
   <path class="fil0 str1" d="M346.27 73.96l-5.83 -6.59c0,0 -30.05,25.07 -31.39,34.65l-3.6 -5.21 -4.65 23.34 17.51 -14.07 -4.92 -0.41c0,0 2.19,-12.06 32.88,-31.71z"/>
   <polygon class="fil0 str1" points="331.47,65.33 324.06,44.62 258.72,68 273.44,109.13 296.11,101.01 292.73,91.55 314.25,83.84 310.33,72.9 "/>
   <line class="fil0 str1" x1="310.33" y1="72.9" x2="302.92" y2= "52.18" />
   <line class="fil0 str1" x1="292.73" y1="91.55" x2="281.39" y2= "59.89" />
  </g>
  <g id="_3059220180176">
   <path class="fil0 str1" d="M103.82 438.67l9.02 3.89c0,0 18.48,-39.63 15.27,-49.96l6.12 3.56 -6.39 -25.82 -11.02 22.56 5.17 -1.93c0,0 3.52,13.23 -18.17,47.7z"/>
   <polygon class="fil0 str1" points="122.89,440.36 140.23,457.78 195.18,403.06 160.74,368.48 141.67,387.47 149.6,395.43 131.5,413.45 140.66,422.66 "/>
   <line class="fil0 str1" x1="140.66" y1="422.66" x2="158.01" y2= "440.08" />
   <line class="fil0 str1" x1="149.6" y1="395.43" x2="176.11" y2= "422.05" />
  </g>
  <g id="_3059220183056">
   <path class="fil0 str1" d="M206.8 477.7l-5.58 6.64c0,0 28.83,25.7 38.38,25.61l-4.57 4.27 23.46 1.16 -16.28 -15.05 0.32 4.85c0,0 -12.09,-0.38 -35.73,-27.48z"/>
   <polygon class="fil0 str1" points="200.53,493.39 181.39,503.64 213.7,564.02 251.71,543.68 240.49,522.72 231.74,527.41 221.1,507.52 210.98,512.93 "/>
   <line class="fil0 str1" x1="210.98" y1="512.93" x2="191.84" y2= "523.17" />
   <line class="fil0 str1" x1="231.74" y1="527.41" x2="202.49" y2= "543.06" />
  </g>
  <g id="_3059220182528">
   <path class="fil0 str0" d="M87.61 554.46l21.27 -5.11c0,0 3.75,-0.3 2.83,-4.13 -0.92,-3.83 -6.26,-26.07 -6.26,-26.07 0,0 -0.53,-3.64 -4.15,-2.77l-20.57 4.94c-1.14,-4.6 0.92,-4.39 0.92,-4.39 0,0 11.58,-2.95 14.59,-3.68 3.01,-0.72 2.19,-2.2 1.58,-4.76 -0.61,-2.55 -2.89,-1.74 -2.89,-1.74l-38.87 9.34c-2.47,0.59 -2.17,1.83 -2.17,1.83 0,0 0.45,1.91 0.84,3.51 0.38,1.59 2.29,1.06 2.29,1.06 0,0 11,-2.64 13.18,-3.16 2.17,-0.52 2.66,3.88 2.66,3.88l-20.49 4.92c0,0 -3.34,0.18 -2.27,4.65 1.08,4.47 6.21,25.85 6.21,25.85 0,0 0.02,3.34 3.42,2.52 3.41,-0.81 27.88,-6.69 27.88,-6.69z"/>
   <path class="fil1 str0" d="M73.86 547.55l-0.79 -3.39 -6.14 1.42 -0.37 -1.59 4.35 -10.69 1.42 -0.32 2.12 9.18 1.91 -0.44 0.37 1.6 -1.91 0.44 0.78 3.39 -1.74 0.4zm-1.15 -4.98l-1.48 -6.4 -2.96 7.42 4.44 -1.02z"/>
   <path id="_1_2" class="fil1 str0" d="M78.42 542.49l1.79 -0.58c0.34,0.86 0.81,1.46 1.41,1.79 0.59,0.34 1.24,0.42 1.93,0.26 0.84,-0.19 1.48,-0.67 1.91,-1.44 0.44,-0.76 0.53,-1.67 0.29,-2.71 -0.23,-0.99 -0.68,-1.71 -1.37,-2.16 -0.7,-0.44 -1.49,-0.56 -2.39,-0.35 -0.56,0.12 -1.04,0.37 -1.43,0.73 -0.4,0.36 -0.67,0.77 -0.84,1.24l-1.68 0.16 -0.31 -7.6 7.05 -1.63 0.39 1.67 -5.66 1.31 0.11 3.98c0.72,-0.79 1.54,-1.29 2.47,-1.51 1.24,-0.28 2.38,-0.1 3.43,0.56 1.05,0.67 1.73,1.67 2.04,3.02 0.3,1.28 0.18,2.48 -0.35,3.58 -0.64,1.36 -1.75,2.22 -3.32,2.58 -1.29,0.3 -2.43,0.18 -3.41,-0.35 -0.98,-0.54 -1.67,-1.39 -2.06,-2.55z"/>
   <path id="_2_3" class="fil1 str0" d="M88.66 536.57c-0.39,-1.68 -0.53,-3.06 -0.42,-4.16 0.11,-1.11 0.44,-2.01 0.99,-2.72 0.56,-0.72 1.35,-1.19 2.38,-1.43 0.76,-0.17 1.46,-0.18 2.11,0 0.64,0.17 1.21,0.5 1.72,1 0.51,0.49 0.96,1.12 1.37,1.9 0.4,0.78 0.77,1.87 1.09,3.28 0.39,1.66 0.52,3.04 0.42,4.14 -0.11,1.1 -0.43,2.01 -0.99,2.73 -0.55,0.71 -1.34,1.19 -2.38,1.43 -1.37,0.31 -2.55,0.07 -3.56,-0.73 -1.21,-0.96 -2.12,-2.78 -2.73,-5.44zm1.79 -0.41c0.53,2.33 1.16,3.81 1.89,4.46 0.72,0.64 1.48,0.87 2.28,0.69 0.8,-0.19 1.38,-0.73 1.75,-1.63 0.36,-0.9 0.28,-2.51 -0.26,-4.83 -0.54,-2.33 -1.17,-3.82 -1.89,-4.46 -0.72,-0.64 -1.49,-0.87 -2.3,-0.68 -0.8,0.18 -1.36,0.67 -1.68,1.45 -0.4,1.01 -0.33,2.67 0.21,5z"/>
  </g>
  <g id="_3059220178400">
   <path class="fil0 str0" d="M118.25 326.84l-7.44 -13.9c0,0 -0.9,-2.55 -3.4,-1.22 -2.5,1.34 -17.02,9.12 -17.02,9.12 0,0 -2.45,1.03 -1.18,3.39l7.19 13.44c-2.99,1.63 -3.22,0.16 -3.22,0.16 0,0 -4.17,-7.53 -5.23,-9.5 -1.05,-1.97 -1.93,-1.12 -3.6,-0.23 -1.67,0.89 -0.69,2.33 -0.69,2.33l13.59 25.4c0.87,1.61 1.68,1.17 1.68,1.17 0,0 1.25,-0.67 2.29,-1.22 1.04,-0.56 0.33,-1.8 0.33,-1.8 0,0 -3.85,-7.18 -4.61,-8.6 -0.76,-1.43 2.21,-2.57 2.21,-2.57l7.17 13.39c0,0 0.74,2.29 3.65,0.73 2.92,-1.56 16.89,-9.04 16.89,-9.04 0,0 2.33,-0.62 1.14,-2.85 -1.19,-2.22 -9.75,-18.2 -9.75,-18.2z"/>
   <path class="fil1 str0" d="M115.9 337.7l-2.21 1.19 2.15 4 -1.04 0.56 -8.25 -0.99 -0.5 -0.93 5.99 -3.22 -0.67 -1.24 1.04 -0.56 0.67 1.24 2.21 -1.19 0.61 1.14zm-3.25 1.75l-4.17 2.23 5.72 0.66 -1.55 -2.89z"/>
   <path id="_1_4" class="fil1 str0" d="M111.59 335.45l-0.74 -1.13c0.53,-0.4 0.86,-0.84 0.97,-1.32 0.12,-0.48 0.06,-0.95 -0.18,-1.4 -0.3,-0.55 -0.75,-0.9 -1.37,-1.05 -0.61,-0.16 -1.26,-0.06 -1.94,0.31 -0.64,0.35 -1.06,0.8 -1.23,1.37 -0.18,0.56 -0.11,1.14 0.2,1.73 0.2,0.36 0.46,0.65 0.78,0.85 0.33,0.2 0.67,0.32 1.02,0.35l0.43 1.14 -5.22 1.65 -2.47 -4.59 1.09 -0.58 1.98 3.68 2.75 -0.83c-0.69,-0.35 -1.19,-0.83 -1.52,-1.44 -0.43,-0.8 -0.52,-1.63 -0.26,-2.49 0.26,-0.85 0.83,-1.52 1.7,-1.99 0.84,-0.45 1.69,-0.59 2.56,-0.43 1.07,0.19 1.88,0.79 2.43,1.82 0.45,0.84 0.58,1.65 0.4,2.44 -0.18,0.78 -0.64,1.42 -1.38,1.91z"/>
   <path id="_2_5" class="fil1 str0" d="M105.61 329.42c-1.09,0.58 -2.03,0.94 -2.82,1.08 -0.79,0.13 -1.48,0.07 -2.08,-0.18 -0.6,-0.25 -1.08,-0.71 -1.44,-1.38 -0.27,-0.49 -0.4,-0.98 -0.4,-1.46 0,-0.48 0.12,-0.95 0.37,-1.39 0.24,-0.45 0.6,-0.89 1.06,-1.31 0.47,-0.43 1.16,-0.89 2.07,-1.38 1.08,-0.59 2.02,-0.95 2.8,-1.08 0.79,-0.14 1.48,-0.08 2.08,0.17 0.61,0.25 1.09,0.71 1.45,1.38 0.48,0.89 0.54,1.76 0.17,2.62 -0.44,1.02 -1.53,1.99 -3.26,2.93zm-0.63 -1.17c1.52,-0.81 2.43,-1.53 2.74,-2.16 0.31,-0.62 0.33,-1.2 0.05,-1.72 -0.28,-0.52 -0.77,-0.82 -1.46,-0.9 -0.7,-0.09 -1.8,0.28 -3.31,1.09 -1.52,0.82 -2.44,1.54 -2.75,2.16 -0.31,0.62 -0.32,1.2 -0.03,1.73 0.28,0.52 0.72,0.82 1.33,0.89 0.77,0.09 1.91,-0.27 3.43,-1.09z"/>
  </g>
  <g id="_3059220177248">
   <path class="fil0 str0" d="M280.95 433.34l19.69 9.55c0,0 3.08,2.14 4.8,-1.4 1.72,-3.54 11.71,-24.11 11.71,-24.11 0,0 1.91,-3.15 -1.44,-4.78l-19.04 -9.24c2.05,-4.27 3.5,-2.8 3.5,-2.8 0,0 10.82,5.06 13.61,6.41 2.79,1.36 3.09,-0.31 4.24,-2.67 1.15,-2.36 -1.13,-3.18 -1.13,-3.18l-35.96 -17.46c-2.28,-1.11 -2.84,0.03 -2.84,0.03 0,0 -0.86,1.78 -1.58,3.25 -0.71,1.48 1.1,2.28 1.1,2.28 0,0 10.18,4.94 12.19,5.92 2.01,0.98 -0.4,4.68 -0.4,4.68l-18.96 -9.2c0,0 -2.7,-1.98 -4.7,2.16 -2.01,4.13 -11.62,23.91 -11.62,23.91 0,0 -2.1,2.6 1.05,4.13 3.15,1.53 25.78,12.52 25.78,12.52z"/>
   <path class="fil1 str0" d="M274.74 419.21l1.52 -3.13 -5.68 -2.75 0.71 -1.47 10.08 -5.6 1.31 0.63 -4.1 8.49 1.77 0.85 -0.71 1.48 -1.77 -0.86 -1.52 3.14 -1.61 -0.78zm2.23 -4.61l2.86 -5.9 -6.96 3.92 4.1 1.98z"/>
   <path id="_1_6" class="fil1 str0" d="M281.42 418.23l1.76 0.67c-0.28,0.89 -0.28,1.64 -0.03,2.28 0.26,0.63 0.71,1.1 1.35,1.41 0.77,0.38 1.57,0.4 2.39,0.08 0.82,-0.33 1.46,-0.97 1.92,-1.93 0.45,-0.92 0.54,-1.77 0.28,-2.55 -0.26,-0.78 -0.8,-1.37 -1.64,-1.77 -0.51,-0.25 -1.04,-0.36 -1.57,-0.33 -0.53,0.04 -1.01,0.18 -1.43,0.45l-1.41 -0.93 4.52 -6.11 6.51 3.14 -0.74 1.54 -5.23 -2.53 -2.4 3.18c1.05,-0.17 2,-0.04 2.87,0.38 1.14,0.55 1.92,1.41 2.32,2.58 0.4,1.17 0.3,2.38 -0.3,3.63 -0.57,1.18 -1.42,2.04 -2.52,2.57 -1.35,0.65 -2.76,0.63 -4.21,-0.07 -1.19,-0.58 -2,-1.38 -2.43,-2.42 -0.43,-1.02 -0.44,-2.12 -0.01,-3.27z"/>
   <path id="_2_7" class="fil1 str0" d="M293.06 420.14c0.74,-1.55 1.51,-2.72 2.28,-3.51 0.78,-0.79 1.6,-1.29 2.48,-1.49 0.87,-0.21 1.79,-0.09 2.74,0.37 0.7,0.34 1.25,0.78 1.64,1.32 0.4,0.54 0.64,1.16 0.73,1.86 0.08,0.7 0.04,1.48 -0.13,2.34 -0.18,0.86 -0.58,1.94 -1.21,3.24 -0.74,1.53 -1.5,2.7 -2.27,3.49 -0.77,0.79 -1.59,1.29 -2.47,1.5 -0.88,0.22 -1.79,0.09 -2.76,-0.37 -1.26,-0.62 -2.03,-1.54 -2.31,-2.8 -0.34,-1.5 0.08,-3.49 1.28,-5.95zm1.65 0.8c-1.04,2.15 -1.48,3.7 -1.32,4.66 0.16,0.95 0.6,1.61 1.34,1.96 0.74,0.36 1.54,0.3 2.39,-0.17 0.84,-0.47 1.79,-1.78 2.82,-3.92 1.04,-2.16 1.49,-3.71 1.32,-4.66 -0.16,-0.95 -0.61,-1.61 -1.36,-1.97 -0.74,-0.36 -1.48,-0.33 -2.22,0.08 -0.94,0.53 -1.93,1.87 -2.97,4.02z"/>
  </g>
  <g id="_3059220177824">
   <path class="fil0 str1" d="M207.63 252.16l23.34 -17.67c0,0 4.42,-2.39 1.23,-6.59 -3.18,-4.2 -21.65,-28.58 -21.65,-28.58 0,0 -2.6,-4.18 -6.57,-1.18l-22.56 17.1c-3.86,-5.03 -1.22,-5.87 -1.22,-5.87 0,0 12.6,-9.84 15.9,-12.34 3.31,-2.5 1.51,-3.88 -0.62,-6.68 -2.12,-2.8 -4.48,-0.58 -4.48,-0.58l-42.62 32.29c-2.71,2.05 -1.68,3.41 -1.68,3.41 0,0 1.59,2.1 2.92,3.85 1.32,1.75 3.38,0.08 3.38,0.08 0,0 12.06,-9.14 14.45,-10.95 2.38,-1.81 5.34,3.32 5.34,3.32l-22.47 17.03c0,0 -3.99,2.01 -0.28,6.91 3.71,4.9 21.48,28.35 21.48,28.35 0,0 1.81,4.08 5.55,1.26 3.73,-2.83 30.56,-23.16 30.56,-23.16z"/>
   <path class="fil1 str1" d="M187.02 251l-2.82 -3.71 -6.72 5.11 -1.32 -1.74 -0.56 -15.41 1.55 -1.18 7.63 10.03 2.09 -1.58 1.33 1.74 -2.1 1.59 2.82 3.71 -1.9 1.44zm-4.14 -5.45l-5.31 -6.98 0.46 10.67 4.85 -3.69z"/>
   <path id="_1_8" class="fil1 str1" d="M189.9 242.44l1.87 -1.68c0.89,0.86 1.79,1.32 2.69,1.41 0.91,0.08 1.75,-0.17 2.51,-0.75 0.92,-0.7 1.43,-1.63 1.54,-2.8 0.11,-1.18 -0.27,-2.33 -1.14,-3.47 -0.82,-1.09 -1.78,-1.71 -2.86,-1.88 -1.09,-0.16 -2.13,0.13 -3.11,0.88 -0.61,0.47 -1.06,1.03 -1.34,1.68 -0.29,0.66 -0.4,1.31 -0.34,1.97l-1.97 1.12 -4.54 -9.09 7.7 -5.86 1.38 1.82 -6.18 4.7 2.33 4.8c0.44,-1.36 1.17,-2.42 2.19,-3.2 1.35,-1.03 2.85,-1.43 4.49,-1.2 1.64,0.23 3.02,1.08 4.14,2.55 1.07,1.41 1.58,2.93 1.54,4.57 -0.04,2.01 -0.92,3.66 -2.64,4.97 -1.41,1.07 -2.86,1.55 -4.35,1.44 -1.49,-0.11 -2.79,-0.77 -3.91,-1.98z"/>
   <path id="_2_9" class="fil1 str1" d="M199.24 229.73c-1.39,-1.83 -2.33,-3.45 -2.8,-4.85 -0.48,-1.41 -0.57,-2.69 -0.29,-3.86 0.29,-1.17 0.99,-2.19 2.12,-3.04 0.83,-0.63 1.69,-1.02 2.57,-1.17 0.88,-0.14 1.76,-0.05 2.65,0.27 0.89,0.32 1.79,0.84 2.71,1.58 0.93,0.72 1.97,1.85 3.14,3.39 1.38,1.82 2.31,3.43 2.78,4.83 0.48,1.4 0.58,2.68 0.29,3.86 -0.27,1.17 -0.98,2.19 -2.11,3.05 -1.5,1.14 -3.08,1.5 -4.74,1.07 -2,-0.51 -4.11,-2.22 -6.32,-5.13zm1.95 -1.49c1.93,2.55 3.52,4.01 4.75,4.4 1.24,0.39 2.29,0.25 3.16,-0.41 0.88,-0.66 1.29,-1.65 1.24,-2.95 -0.04,-1.29 -1.03,-3.21 -2.96,-5.75 -1.94,-2.54 -3.52,-4.01 -4.76,-4.4 -1.23,-0.38 -2.29,-0.24 -3.17,0.44 -0.88,0.66 -1.3,1.56 -1.25,2.7 0.06,1.44 1.06,3.43 2.99,5.97z"/>
  </g>
  <g id="_3059220179216">
   <path class="fil0 str0" d="M281.71 185.54l5.14 23.13c0,0 0.26,4.05 4.43,3.13 4.16,-0.93 28.33,-6.3 28.33,-6.3 0,0 3.95,-0.5 3.08,-4.43l-4.97 -22.37c5,-1.14 4.73,1.08 4.73,1.08 0,0 2.98,12.59 3.71,15.86 0.73,3.28 2.35,2.42 5.13,1.8 2.77,-0.61 1.94,-3.1 1.94,-3.1l-9.39 -42.25c-0.6,-2.68 -1.95,-2.38 -1.95,-2.38 0,0 -2.08,0.46 -3.81,0.84 -1.74,0.39 -1.2,2.47 -1.2,2.47 0,0 2.66,11.95 3.18,14.32 0.53,2.36 -4.24,2.81 -4.24,2.81l-4.95 -22.28c0,0 -0.14,-3.61 -4.99,-2.53 -4.86,1.08 -28.1,6.24 -28.1,6.24 0,0 -3.62,-0.04 -2.8,3.66 0.82,3.7 6.73,30.3 6.73,30.3z"/>
   <path class="fil1 str0" d="M289.44 170.79l3.69 -0.79 -1.42 -6.69 1.73 -0.37 11.48 4.91 0.33 1.54 -9.98 2.13 0.44 2.08 -1.73 0.37 -0.45 -2.08 -3.69 0.79 -0.4 -1.89zm5.42 -1.16l6.95 -1.48 -7.98 -3.35 1.03 4.83z"/>
   <path id="_1_10" class="fil1 str0" d="M294.84 175.81l0.59 1.95c-0.94,0.35 -1.59,0.85 -1.96,1.49 -0.37,0.64 -0.48,1.34 -0.32,2.1 0.19,0.91 0.7,1.61 1.52,2.09 0.83,0.48 1.8,0.61 2.94,0.36 1.08,-0.23 1.86,-0.71 2.36,-1.45 0.49,-0.74 0.63,-1.6 0.43,-2.58 -0.13,-0.61 -0.39,-1.13 -0.77,-1.56 -0.38,-0.43 -0.82,-0.74 -1.32,-0.93l-0.15 -1.82 8.23 -0.2 1.63 7.66 -1.81 0.39 -1.3 -6.15 -4.32 0.05c0.84,0.79 1.37,1.69 1.58,2.71 0.29,1.34 0.07,2.58 -0.67,3.7 -0.73,1.13 -1.83,1.84 -3.3,2.15 -1.39,0.3 -2.68,0.15 -3.87,-0.44 -1.46,-0.73 -2.37,-1.94 -2.73,-3.65 -0.3,-1.4 -0.16,-2.63 0.44,-3.68 0.6,-1.06 1.53,-1.79 2.8,-2.19z"/>
   <path id="_2_11" class="fil1 str0" d="M301.06 187.01c1.82,-0.39 3.33,-0.52 4.52,-0.38 1.19,0.14 2.16,0.51 2.92,1.12 0.76,0.62 1.26,1.48 1.5,2.6 0.18,0.83 0.16,1.59 -0.04,2.29 -0.2,0.69 -0.57,1.31 -1.11,1.85 -0.54,0.54 -1.23,1.02 -2.08,1.44 -0.86,0.42 -2.04,0.8 -3.57,1.12 -1.81,0.39 -3.31,0.51 -4.5,0.38 -1.19,-0.14 -2.16,-0.51 -2.93,-1.12 -0.76,-0.61 -1.26,-1.48 -1.51,-2.6 -0.31,-1.49 -0.03,-2.77 0.86,-3.85 1.07,-1.29 3.04,-2.24 5.94,-2.85zm0.41 1.94c-2.53,0.54 -4.15,1.19 -4.86,1.96 -0.71,0.78 -0.97,1.59 -0.79,2.46 0.19,0.87 0.76,1.51 1.73,1.93 0.97,0.41 2.71,0.34 5.23,-0.19 2.54,-0.54 4.16,-1.2 4.87,-1.97 0.71,-0.77 0.97,-1.59 0.78,-2.48 -0.19,-0.86 -0.7,-1.48 -1.55,-1.84 -1.07,-0.45 -2.88,-0.41 -5.41,0.13z"/>
  </g>
 </g>
</svg>
