<?xml version="1.0" encoding="UTF-8"?>
<!DOCTYPE svg PUBLIC "-//W3C//DTD SVG 1.1//EN" "http://www.w3.org/Graphics/SVG/1.1/DTD/svg11.dtd">
<!-- Creator: CorelDRAW -->
<svg xmlns="http://www.w3.org/2000/svg" xml:space="preserve" width="650px" height="600px" version="1.1" style="shape-rendering:geometricPrecision; text-rendering:geometricPrecision; image-rendering:optimizeQuality; fill-rule:evenodd; clip-rule:evenodd"
viewBox="0 0 650 600"
 xmlns:xlink="http://www.w3.org/1999/xlink"
 xmlns:xodm="http://www.corel.com/coreldraw/odm/2003">
 <defs>
  <style type="text/css">
   <![CDATA[
    .str3 {stroke:#00C4FF;stroke-miterlimit:22.9256}
    .str7 {stroke:fuchsia;stroke-miterlimit:22.9256}
    .str5 {stroke:fuchsia;stroke-miterlimit:22.9256}
    .str2 {stroke:#00C4FF;stroke-width:2;stroke-miterlimit:22.9256}
    .str8 {stroke:fuchsia;stroke-width:2;stroke-miterlimit:22.9256}
    .str1 {stroke:fuchsia;stroke-width:2;stroke-miterlimit:22.9256}
    .str4 {stroke:#00C4FF;stroke-width:3;stroke-miterlimit:22.9256}
    .str6 {stroke:fuchsia;stroke-width:3;stroke-miterlimit:22.9256}
    .str0 {stroke:fuchsia;stroke-width:3;stroke-miterlimit:22.9256}
    .fil0 {fill:none}
   ]]>
  </style>
 </defs>
 <g id="Слой_x0020_1">
  <metadata id="CorelCorpID_0Corel-Layer"/>
  <g id="_2877067751088">
   <rect class="fil0 str0" transform="matrix(0.298876 0.368759 -0.234018 0.425006 517.25 76.9782)" width="130" height="130"/>
   <rect class="fil0 str0" transform="matrix(-0.471426 -0.0553879 -0.234018 0.425006 617.391 132.118)" width="130" height="130"/>
   <polygon class="fil0 str1" points="517.25,76.98 556.1,124.92 617.39,132.12 578.54,84.18 "/>
   <polygon class="fil0 str1" points="601.24,112.19 539.96,104.99 531.04,94 592.33,101.2 "/>
   <rect class="fil0 str1" transform="matrix(0.395769 0.472526 -0.284222 0.516181 531.334 94.1588)" width="22.56" height="29.99"/>
   <rect class="fil0 str1" transform="matrix(0.429963 0.074296 -0.247026 0.448629 581.009 171.313)" width="20" height="20" rx="4" ry="4"/>
   <rect class="fil0 str1" transform="matrix(0.429963 0.074296 -0.247026 0.448629 567.268 169.391)" width="20" height="20" rx="4" ry="4"/>
  </g>
  <rect class="fil0 str2" transform="matrix(0.447852 -0.0390701 0.209489 0.408972 195.046 197.138)" width="130" height="130"/>
  <rect class="fil0 str2" transform="matrix(-0.293389 0.340619 0.209489 0.408972 291.409 147.778)" width="130" height="130"/>
  <polygon class="fil0 str3" points="195.05,197.14 253.27,192.06 291.41,147.78 233.19,152.86 "/>
  <polygon class="fil0 str3" points="267.21,149.89 229.07,194.17 215.72,195.34 253.86,151.06 "/>
  <rect class="fil0 str2" transform="matrix(0.580657 -0.0601028 0.254431 0.496707 215.996 195.193)" width="22.56" height="29.99"/>
  <rect class="fil0 str2" transform="matrix(0.286247 -0.298055 0.221134 0.431704 302.882 197.11)" width="20" height="20" rx="4" ry="4"/>
  <rect class="fil0 str2" transform="matrix(0.286247 -0.298055 0.221134 0.431704 294.089 206.875)" width="20" height="20" rx="4" ry="4"/>
  <g id="_2877067747200">
   <rect class="fil0 str4" transform="matrix(0.192468 0.078299 -0 0.212384 506.635 357.832)" width="130" height="130"/>
   <rect class="fil0 str4" transform="matrix(-0.192468 0.078299 -0 0.212384 556.677 357.832)" width="130" height="130"/>
   <polygon class="fil0 str3" points="506.64,357.83 531.66,368.01 556.68,357.83 531.66,347.65 "/>
   <polygon class="fil0 str3" points="546.28,353.6 521.26,363.78 515.52,361.45 540.54,351.27 "/>
   <rect class="fil0 str2" transform="matrix(0.251532 0.0976311 -0 0.257946 515.663 361.446)" width="22.56" height="29.99"/>
   <rect class="fil0 str2" transform="matrix(0.180561 -0.0622939 -0 0.224189 551.002 380.544)" width="20" height="20" rx="4" ry="4"/>
   <rect class="fil0 str2" transform="matrix(0.180561 -0.0622939 -0 0.224189 545.327 382.708)" width="20" height="20" rx="4" ry="4"/>
  </g>
  <g id="_2877067744128">
   <rect class="fil0 str0" transform="matrix(0.249554 0.0421211 0.0562405 0.252498 39.5486 533.486)" width="130" height="130"/>
   <rect class="fil0 str0" transform="matrix(-0.208086 0.144054 0.0562405 0.252498 99.0423 520.235)" width="130" height="130"/>
   <polygon class="fil0 str5" points="39.55,533.49 71.99,538.96 99.04,520.24 66.6,514.76 "/>
   <polygon class="fil0 str5" points="85.56,517.96 58.51,536.69 51.07,535.43 78.12,516.7 "/>
   <rect class="fil0 str1" transform="matrix(0.324893 0.049464 0.0683057 0.306665 51.239 535.393)" width="22.56" height="29.99"/>
   <rect class="fil0 str1" transform="matrix(0.198168 -0.121873 0.0593666 0.266533 98.3094 548.739)" width="20" height="20" rx="4" ry="4"/>
   <rect class="fil0 str1" transform="matrix(0.198168 -0.121873 0.0593666 0.266533 92.1358 552.815)" width="20" height="20" rx="4" ry="4"/>
  </g>
  <g id="_2877067743648">
   <rect class="fil0 str0" transform="matrix(0.248028 0.239754 -0.131463 0.327175 243.341 384.27)" width="130" height="130"/>
   <rect class="fil0 str0" transform="matrix(-0.34496 0.00148311 -0.131463 0.327175 320.43 415.246)" width="130" height="130"/>
   <polygon class="fil0 str5" points="243.34,384.27 275.58,415.44 320.43,415.25 288.19,384.08 "/>
   <polygon class="fil0 str5" points="307.03,402.29 262.18,402.49 254.79,395.34 299.63,395.14 "/>
   <rect class="fil0 str1" transform="matrix(0.327049 0.306095 -0.159666 0.397363 255.012 395.426)" width="22.56" height="29.99"/>
   <rect class="fil0 str1" transform="matrix(0.316711 0.0158022 -0.138771 0.345361 297.63 446.72)" width="20" height="20" rx="4" ry="4"/>
   <rect class="fil0 str1" transform="matrix(0.316711 0.0158022 -0.138771 0.345361 287.548 446.541)" width="20" height="20" rx="4" ry="4"/>
  </g>
  <g id="_2877067740672">
   <rect class="fil0 str0" transform="matrix(0.36254 0.194551 -0.121438 0.473578 386.228 444.413)" width="175" height="175"/>
   <rect class="fil0 str0" transform="matrix(0.432403 -0.0411581 -0.121438 0.473578 449.672 478.459)" width="396.02" height="175"/>
   <rect class="fil0 str1" transform="matrix(0.402822 0.216167 -0.121438 0.473578 388.447 454.252)" width="135" height="23"/>
   <rect class="fil0 str1" transform="matrix(0.402822 0.216167 -0.121438 0.473578 374.001 510.587)" width="135" height="23"/>
   <rect class="fil0 str1" transform="matrix(0.402822 0.216167 -0.121438 0.473578 383.926 471.885)" width="135" height="23"/>
   <rect class="fil0 str1" transform="matrix(0.402822 0.216167 -0.121438 0.473578 378.98 491.172)" width="135" height="23"/>
   <rect class="fil0 str1" transform="matrix(0.36254 0.194551 -0.123436 0.481371 407.445 458.492)" width="8" height="162"/>
   <rect class="fil0 str1" transform="matrix(0.36254 0.194551 -0.123436 0.481371 423.419 467.064)" width="8" height="162"/>
   <rect class="fil0 str1" transform="matrix(0.432403 -0.0411581 -0.121438 0.473578 457.815 485.101)" width="16.64" height="141.96"/>
   <rect class="fil0 str1" transform="matrix(0.432403 -0.0411581 -0.121438 0.473578 476.049 483.365)" width="16.64" height="141.96"/>
   <rect class="fil0 str1" transform="matrix(0.432403 -0.0411581 -0.121438 0.473578 494.282 481.63)" width="16.64" height="141.96"/>
   <rect class="fil0 str1" transform="matrix(0.432403 -0.0411581 -0.121438 0.473578 512.516 479.894)" width="16.64" height="141.96"/>
   <rect class="fil0 str1" transform="matrix(0.432403 -0.0411581 -0.121438 0.473578 530.75 478.158)" width="16.64" height="141.96"/>
   <rect class="fil0 str1" transform="matrix(0.432403 -0.0411581 -0.121438 0.473578 548.984 476.423)" width="16.64" height="141.96"/>
   <rect class="fil0 str1" transform="matrix(0.432403 -0.0411581 -0.121438 0.473578 567.219 474.687)" width="16.64" height="141.96"/>
   <rect class="fil0 str1" transform="matrix(0.432403 -0.0411581 -0.121438 0.473578 585.452 472.952)" width="16.64" height="141.96"/>
   <rect class="fil0 str1" transform="matrix(0.432403 -0.0411581 -0.121438 0.473578 603.686 471.216)" width="16.64" height="141.96"/>
   <polygon class="fil0 str1" points="386.23,444.41 449.67,478.46 620.91,462.16 557.76,428.95 "/>
  </g>
  <g id="_2877067741920">
   <rect class="fil0 str4" transform="matrix(0.190499 -0.0263597 0.084551 0.212302 75.3109 398.285)" width="175" height="175"/>
   <rect class="fil0 str4" transform="matrix(0.151975 -0.134621 0.084551 0.212302 108.648 393.672)" width="396.02" height="175"/>
   <rect class="fil0 str2" transform="matrix(0.211666 -0.0292886 0.084551 0.212302 78.8588 401.39)" width="135" height="23"/>
   <rect class="fil0 str2" transform="matrix(0.211666 -0.0292886 0.084551 0.212302 88.9167 426.645)" width="135" height="23"/>
   <rect class="fil0 str2" transform="matrix(0.211666 -0.0292886 0.084551 0.212302 82.0069 409.295)" width="135" height="23"/>
   <rect class="fil0 str2" transform="matrix(0.211666 -0.0292886 0.084551 0.212302 85.4503 417.941)" width="135" height="23"/>
   <rect class="fil0 str2" transform="matrix(0.190499 -0.0263597 0.0859423 0.215795 87.2012 397.76)" width="8" height="162"/>
   <rect class="fil0 str2" transform="matrix(0.190499 -0.0263597 0.0859423 0.215795 95.5952 396.598)" width="8" height="162"/>
   <rect class="fil0 str2" transform="matrix(0.151975 -0.134621 0.084551 0.212302 113.552 393.938)" width="16.64" height="141.96"/>
   <rect class="fil0 str2" transform="matrix(0.151975 -0.134621 0.084551 0.212302 119.961 388.261)" width="16.64" height="141.96"/>
   <rect class="fil0 str2" transform="matrix(0.151975 -0.134621 0.084551 0.212302 126.37 382.585)" width="16.64" height="141.96"/>
   <rect class="fil0 str2" transform="matrix(0.151975 -0.134621 0.084551 0.212302 132.778 376.908)" width="16.64" height="141.96"/>
   <rect class="fil0 str2" transform="matrix(0.151975 -0.134621 0.084551 0.212302 139.187 371.231)" width="16.64" height="141.96"/>
   <rect class="fil0 str2" transform="matrix(0.151975 -0.134621 0.084551 0.212302 145.595 365.554)" width="16.64" height="141.96"/>
   <rect class="fil0 str2" transform="matrix(0.151975 -0.134621 0.084551 0.212302 152.004 359.877)" width="16.64" height="141.96"/>
   <rect class="fil0 str2" transform="matrix(0.151975 -0.134621 0.084551 0.212302 158.413 354.2)" width="16.64" height="141.96"/>
   <rect class="fil0 str2" transform="matrix(0.151975 -0.134621 0.084551 0.212302 164.821 348.524)" width="16.64" height="141.96"/>
   <polygon class="fil0 str3" points="75.31,398.29 108.65,393.67 168.83,340.36 135.84,345.21 "/>
  </g>
  <g id="_2877067740192">
   <rect class="fil0 str4" transform="matrix(0.272221 0.0229707 0.0508591 0.320609 340.329 275.619)" width="175" height="175"/>
   <rect class="fil0 str4" transform="matrix(0.252649 -0.139087 0.0508591 0.320609 387.967 279.639)" width="396.02" height="175"/>
   <rect class="fil0 str2" transform="matrix(0.302467 0.025523 0.0508591 0.320609 344.276 281.03)" width="135" height="23"/>
   <rect class="fil0 str2" transform="matrix(0.302467 0.025523 0.0508591 0.320609 350.326 319.168)" width="135" height="23"/>
   <rect class="fil0 str2" transform="matrix(0.302467 0.025523 0.0508591 0.320609 346.169 292.967)" width="135" height="23"/>
   <rect class="fil0 str2" transform="matrix(0.302467 0.025523 0.0508591 0.320609 348.241 306.024)" width="135" height="23"/>
   <rect class="fil0 str2" transform="matrix(0.272221 0.0229707 0.051696 0.325885 356.97 278.605)" width="8" height="162"/>
   <rect class="fil0 str2" transform="matrix(0.272221 0.0229707 0.051696 0.325885 368.965 279.617)" width="8" height="162"/>
   <rect class="fil0 str2" transform="matrix(0.252649 -0.139087 0.0508591 0.320609 394.681 281.54)" width="16.64" height="141.96"/>
   <rect class="fil0 str2" transform="matrix(0.252649 -0.139087 0.0508591 0.320609 405.335 275.674)" width="16.64" height="141.96"/>
   <rect class="fil0 str2" transform="matrix(0.252649 -0.139087 0.0508591 0.320609 415.988 269.809)" width="16.64" height="141.96"/>
   <rect class="fil0 str2" transform="matrix(0.252649 -0.139087 0.0508591 0.320609 426.642 263.944)" width="16.64" height="141.96"/>
   <rect class="fil0 str2" transform="matrix(0.252649 -0.139087 0.0508591 0.320609 437.296 258.079)" width="16.64" height="141.96"/>
   <rect class="fil0 str2" transform="matrix(0.252649 -0.139087 0.0508591 0.320609 447.95 252.214)" width="16.64" height="141.96"/>
   <rect class="fil0 str2" transform="matrix(0.252649 -0.139087 0.0508591 0.320609 458.604 246.349)" width="16.64" height="141.96"/>
   <rect class="fil0 str2" transform="matrix(0.252649 -0.139087 0.0508591 0.320609 469.258 240.484)" width="16.64" height="141.96"/>
   <rect class="fil0 str2" transform="matrix(0.252649 -0.139087 0.0508591 0.320609 479.912 234.619)" width="16.64" height="141.96"/>
   <polygon class="fil0 str3" points="340.33,275.62 387.97,279.64 488.02,224.56 440.78,220.97 "/>
  </g>
  <g id="_2877067737888">
   <rect class="fil0 str4" transform="matrix(0.00865879 0.153054 -0.174129 0.0534866 207.892 490.335)" width="175" height="175"/>
   <rect class="fil0 str4" transform="matrix(0.0971581 0.129427 -0.174129 0.0534866 209.407 517.119)" width="396.02" height="175"/>
   <polygon class="fil0 str3" points="207.89,490.33 209.41,517.12 247.88,568.38 246.16,541.85 "/>
   <line class="fil0 str3" x1="208.41" y1="499.56" x2="177.93" y2= "508.76" />
   <line class="fil0 str3" x1="208.81" y1="506.6" x2="178.35" y2= "516.13" />
   <line class="fil0 str3" x1="201.22" y1="495.45" x2="202.4" y2= "514.26" />
   <line class="fil0 str3" x1="183.7" y1="500.83" x2="183.47" y2= "520.08" />
   <line class="fil0 str3" x1="192.54" y1="499.65" x2="193.77" y2= "516.15" />
   <line class="fil0 str3" x1="209.83" y1="523.48" x2="187.4" y2= "530.37" />
   <line class="fil0 str3" x1="215.28" y1="531.24" x2="193.07" y2= "538.83" />
   <line class="fil0 str3" x1="220.14" y1="539.57" x2="199.33" y2= "546.73" />
   <line class="fil0 str3" x1="226.4" y1="547.46" x2="206.29" y2= "554.41" />
   <line class="fil0 str3" x1="239.02" y1="563.6" x2="217.3" y2= "570.27" />
   <line class="fil0 str3" x1="231.25" y1="555.79" x2="211.85" y2= "562.52" />
  </g>
  <g id="_2877067736592">
   <rect class="fil0 str6" transform="matrix(-0.0888806 -0.181138 0.160329 -0.13316 412.574 194.71)" width="130" height="130"/>
   <rect class="fil0 str6" transform="matrix(0.207097 0.0829542 0.160329 -0.13316 374.097 160.378)" width="130" height="130"/>
   <polygon class="fil0 str7" points="412.57,194.71 401.02,171.16 374.1,160.38 385.65,183.93 "/>
   <polygon class="fil0 str7" points="378.9,170.16 405.82,180.95 408.47,186.35 381.55,175.57 "/>
   <rect class="fil0 str8" transform="matrix(-0.119701 -0.23378 0.194724 -0.161726 408.361 186.25)" width="22.56" height="29.99"/>
   <rect class="fil0 str8" transform="matrix(-0.185859 -0.08482 0.169241 -0.140561 395.605 150.032)" width="20" height="20" rx="4" ry="4"/>
   <rect class="fil0 str8" transform="matrix(-0.185859 -0.08482 0.169241 -0.140561 401.603 152.568)" width="20" height="20" rx="4" ry="4"/>
  </g>
  <g id="_2877067736832">
   <rect class="fil0 str4" transform="matrix(0.118314 0.139404 -0.127218 0.176124 369.249 31.4481)" width="175" height="175"/>
   <rect class="fil0 str4" transform="matrix(0.185529 0.0532758 -0.127218 0.176124 389.953 55.8438)" width="396.02" height="175"/>
   <polygon class="fil0 str3" points="369.25,31.45 389.95,55.84 463.43,76.94 442.71,52.94 "/>
   <line class="fil0 str3" x1="376.38" y1="39.85" x2="353.99" y2= "70.52" />
   <line class="fil0 str3" x1="381.82" y1="46.26" x2="359.69" y2= "77.24" />
   <line class="fil0 str3" x1="366.58" y1="41.12" x2="381.23" y2= "58.17" />
   <line class="fil0 str3" x1="353.78" y1="58.84" x2="367.4" y2= "77.31" />
   <line class="fil0 str3" x1="361.34" y1="51.36" x2="374.37" y2= "66.16" />
   <line class="fil0 str3" x1="394.93" y1="61.6" x2="378.55" y2= "84.28" />
   <line class="fil0 str3" x1="405.7" y1="65.06" x2="390.02" y2= "88.25" />
   <line class="fil0 str3" x1="416.31" y1="69.49" x2="401.66" y2= "91.26" />
   <line class="fil0 str3" x1="427.94" y1="72.5" x2="413.8" y2= "93.56" />
   <line class="fil0 str3" x1="451.56" y1="78.77" x2="435.69" y2= "100.75" />
   <line class="fil0 str3" x1="438.55" y1="76.92" x2="424.92" y2= "97.28" />
  </g>
  <g id="_2877067735632">
   <rect class="fil0 str0" transform="matrix(-0.15326 0.0190516 -0.0770685 -0.137766 149.322 267.602)" width="130" height="130"/>
   <rect class="fil0 str0" transform="matrix(0.0964344 -0.120631 -0.0770685 -0.137766 116.862 285.761)" width="130" height="130"/>
   <polygon class="fil0 str5" points="149.32,267.6 129.4,270.08 116.86,285.76 136.79,283.28 "/>
   <polygon class="fil0 str5" points="125.14,284.73 137.68,269.05 142.25,268.48 129.71,284.16 "/>
   <rect class="fil0 str1" transform="matrix(-0.198588 0.0279443 -0.0936018 -0.167321 142.155 268.534)" width="22.56" height="29.99"/>
   <rect class="fil0 str1" transform="matrix(-0.0945186 0.105929 -0.0813522 -0.145424 112.302 268.97)" width="20" height="20" rx="4" ry="4"/>
   <rect class="fil0 str1" transform="matrix(-0.0945186 0.105929 -0.0813522 -0.145424 115.197 265.506)" width="20" height="20" rx="4" ry="4"/>
  </g>
 </g>
</svg>
