<?xml version="1.0" encoding="UTF-8"?>
<!DOCTYPE svg PUBLIC "-//W3C//DTD SVG 1.1//EN" "http://www.w3.org/Graphics/SVG/1.1/DTD/svg11.dtd">
<!-- Creator: CorelDRAW -->
<svg xmlns="http://www.w3.org/2000/svg" xml:space="preserve" width="600px" height="600px" version="1.1" style="shape-rendering:geometricPrecision; text-rendering:geometricPrecision; image-rendering:optimizeQuality; fill-rule:evenodd; clip-rule:evenodd"
viewBox="0 0 600 600"
 xmlns:xlink="http://www.w3.org/1999/xlink"
 xmlns:xodm="http://www.corel.com/coreldraw/odm/2003">
 <defs>
  <style type="text/css">
   <![CDATA[
    .str1 {stroke:#00C4FF;stroke-miterlimit:22.9256}
    .str2 {stroke:#00C4FF;stroke-miterlimit:22.9256}
    .str0 {stroke:fuchsia;stroke-miterlimit:22.9256}
    .fil0 {fill:none}
   ]]>
  </style>
 </defs>
 <g id="Слой_x0020_1">
  <metadata id="CorelCorpID_0Corel-Layer"/>
  <g id="_2878339419344">
   <polygon class="fil0 str0" points="565.11,481.63 549.67,545.14 449.21,519.95 470.98,431.75 "/>
   <path class="fil0 str0" d="M433.5 543.77l22.9 4.03c0,0 8.02,-19.97 12.07,-19.43 4.05,0.53 3.46,11.18 0.96,20.09l2.23 0.63c0,0 4.26,-18.58 1.73,-21.14 -2.52,-2.57 -8.75,-3.06 -10.49,-1.15 -1.74,1.92 -1.03,1.52 -1.03,1.52l-16.7 -4.7c0,0 7.75,-25.45 8.45,-30.07 0.69,-4.61 8.72,-39.6 6.23,-45.71 -2.49,-6.1 -86.46,-23.69 -86.46,-23.69 0,0 -4.7,-2.52 -7.6,5.68 -2.9,8.19 -15.23,41.37 -15.23,41.37 0,0 -1.83,0.09 -2.61,2.88 -0.78,2.78 -2.42,10.73 -2.42,10.73 0,0 -1.34,2.63 1.85,4.13l-7.13 23.22c0,0 -2.59,7.09 5.21,9.28 7.79,2.19 71.98,19.62 71.98,19.62 0,0 7.67,-27.28 14.1,-26.67 6.44,0.6 6.18,14.35 1.96,29.38z"/>
   <polyline class="fil0 str0" points="391.04,427.99 395.03,413.41 470.98,431.75 "/>
   <path class="fil0 str0" d="M349.75 523.24c0,0 -0.67,8.83 5.61,9.99 6.28,1.17 8.26,-1 12.76,-5.58"/>
   <path class="fil0 str0" d="M411.16 539.9c0,0 -1.48,7.39 5.2,9.27 6.68,1.88 10.65,0.59 15.41,-18.5 0,0 2.66,-9.46 -4.42,-12.06"/>
   <path class="fil0 str0" d="M417.44 541.06c0,0 -1.16,6.28 1.86,8.34"/>
   <path class="fil0 str0" d="M454.41 548.45c0,0 0.11,6.04 2.9,6.82 2.78,0.78 7.32,3.86 12.5,-10.31"/>
   <path class="fil0 str0" d="M461.44 538.41c0,0 -4,12.09 -1.04,16.53"/>
   <polygon class="fil0 str0" points="481.21,534.35 478.08,545.49 503.6,550.85 506.58,540.28 "/>
   <path class="fil0 str0" d="M497.57 550.96c0,0 -1.08,8.11 2.66,9.76 3.74,1.65 7.8,2.19 11.66,-5.14 3.86,-7.32 3.49,-17.58 1.11,-18.91 -2.39,-1.33 -4.87,2.27 -6.18,4.87 -1.31,2.61 -2.19,7.8 -2.19,7.8"/>
   <path class="fil0 str0" d="M504.63 549.34c0,0 -1.9,7.83 1.06,12.26"/>
   <path class="fil0 str0" d="M507.21 561.02c0,0 8.21,3.37 9.79,2.01 1.59,-1.36 8.84,-14.34 5.95,-21.16 -2.89,-6.82 -7.72,1.02 -8.19,2.7"/>
   <path class="fil0 str0" d="M517.96 563.9c0,0 4.3,1.81 6.44,0.61 2.14,-1.2 6.87,-9.49 7.21,-18.67 0,0 -0.01,-6.95 -4.29,-4.54 -4.28,2.4 -3.73,5.32 -3.73,5.32"/>
   <path class="fil0 str0" d="M528.75 559.72c0,0 2.62,1.34 4.12,-1.84l0.63 -2.23 9.06 1.94 1.88 -6.68 -1.85 -4.12 -7.79 -2.19 0.75 -3"/>
   <line class="fil0 str0" x1="475.03" y1="539.22" x2="478.37" y2= "540.16" />
   <path class="fil0 str0" d="M415.31 508.02c0,0 3.9,1.1 4.99,-2.8 1.1,-3.9 4.63,-14.32 2.56,-15.5 -2.07,-1.19 11.56,-45.42 11.56,-45.42 0,0 1.63,-5.41 -1.87,-6.33"/>
   <path class="fil0 str0" d="M364.71 437.93l59.49 14.92c0,0 3.66,-0.18 1.62,7.06 -2.03,7.24 -4.38,15.59 -4.38,15.59 0,0 0.73,3.81 -6.66,2.34 -7.39,-1.48 -58.38,-14.61 -58.38,-14.61"/>
   <path class="fil0 str0" d="M359.56 494.76c0,0 -4.05,18.69 -1.42,20.03 2.63,1.34 29.51,8.29 29.51,8.29 0,0 3.34,0.94 5.55,-2.65 2.21,-3.58 6.92,-16.08 6.92,-16.08l-40.09 -11.26 -0.47 1.67z"/>
   <path class="fil0 str0" d="M405.26 516.01c0,0 9.06,1.95 8.59,3.62 -0.47,1.67 -0.54,4.05 -5.55,2.64 -5.01,-1.4 -9.62,-2.1 -9.15,-3.77 0.47,-1.67 2.21,-3.58 6.11,-2.49z"/>
   <path class="fil0 str0" d="M347.3 506.33c0,0 5.56,1.57 6.03,-0.1 0.47,-1.67 -0.73,-3.81 -4.07,-4.75 -3.34,-0.94 -5.3,-1.41 -5.75,0.06 -0.45,1.46 -1.94,3.79 3.79,4.79z"/>
  </g>
  <g id="_2878339413392">
   <path class="fil0 str1" d="M533.53 337.4c0,0 2.66,8.77 2.45,14.89 -0.2,6.13 -0.2,14.09 -0.2,14.09 0,0 -0.41,1.02 -5.71,1.63 0,0 0,-4.9 -2.05,-5.3 -2.04,-0.41 -3.47,2.65 -3.67,5.71 0,0 -0.61,0.82 -11.63,1.84 -11.02,1.02 -14.49,1.43 -14.49,1.43 0,0 0.61,-7.96 -3.68,-8.16 -4.29,-0.2 -5.92,7.14 -6.32,7.76 -0.29,0.42 -0.37,1.23 -1.46,1.76 -0.5,0.24 -1.2,0.42 -2.22,0.48 -3.26,0.21 -11.22,-1.42 -16.12,-1.42 -4.9,0 -4.9,-0.2 -5.51,-0.2 -0.62,0 -1.64,-2.45 -1.64,-5.92 0,-3.47 -0.2,-7.55 3.27,-10.62 3.46,-3.06 7.95,-8.98 11.83,-12.86 3.88,-3.88 6.12,-6.53 13.06,-7.35 6.94,-0.82 16.74,-1.43 19.39,-1.23 2.65,0.21 24.7,3.47 24.7,3.47z"/>
   <path class="fil0 str1" d="M486.79 357c0,0 6.33,-3.88 11.84,-13.07 5.51,-9.18 5.84,-8.24 8.53,-10.04"/>
   <path class="fil0 str1" d="M464.34 359.05l13.68 -0.01c0,0 -2.65,10.82 -4.29,11.03 -1.63,0.2 -6.94,0 -6.94,0 0,0 -1.22,0.2 -1.83,-0.82 -0.62,-1.02 -1.43,-5.92 -0.62,-10.2z"/>
   <path class="fil0 str1" d="M461.49 361.23c0,0 0.74,1.06 1.63,1.08 0,0 0.54,-3.32 0.37,-5.85"/>
   <path class="fil0 str1" d="M478.43 362.92c0,0 6.97,-0.23 7.96,-3.27 0.98,-3.04 0.2,-3.47 -1.84,-2.65 -2.04,0.82 -5.31,0.82 -6.12,5.92z"/>
   <path class="fil0 str1" d="M476.18 343.53c0,0 12.86,-1.63 22.65,-1.43 0,0 -3.87,7.14 -7.34,10.21"/>
   <path class="fil0 str1" d="M491.49 352.31c0,0 -16.54,0.81 -22.25,0.41"/>
   <path class="fil0 str1" d="M486.77 373.05c0,0 0.18,3.97 2.68,5.18 0.63,0.3 1.71,0.24 2.66,0.2 4.69,-0.2 5.5,-5.72 5.5,-6.74 0,-1.02 0,-6.32 -3.47,-6.32 -3.47,0 -4.49,3.67 -4.69,4.9 -0.2,1.22 -0.81,6.12 2.66,8.16"/>
   <path class="fil0 str1" d="M463.94 372.31c0,0 0.41,3.06 3.06,4.08 2.65,1.02 6.73,-1.22 6.73,-3.47"/>
   <path class="fil0 str1" d="M466.39 372.31c0,0 0.4,3.8 3.06,4.08"/>
   <path class="fil0 str1" d="M502.1 371.49c0,0 0,1.43 3.27,1.43 3.27,0 4.74,-0.02 5.23,-2.46"/>
   <path class="fil0 str1" d="M519.1 369.55c0,0 0.15,4.18 3.21,4.18 3.06,0 5.31,0.81 6.74,-2.66 1.42,-3.47 0.2,-7.14 -1.84,-7.34 0,0 -1.51,-0.22 -1.98,1.05"/>
   <path class="fil0 str1" d="M521.8 369.13c0,0 -0.25,2.84 1.87,4.64"/>
   <path class="fil0 str1" d="M524.15 368.83c0,0 -0.14,3.66 2.48,4.79"/>
  </g>
  <g id="_2878339412960">
   <polygon class="fil0 str1" points="414.36,245.84 423.84,283.85 363.52,298.44 350.53,245.57 "/>
   <path class="fil0 str1" d="M361.82 315.46l13.27 -4.24c0,0 -1.31,-12.83 0.99,-13.67 2.31,-0.84 4.96,4.97 6.11,10.4l1.36 -0.29c0,0 -2.91,-11.04 -4.97,-11.7 -2.05,-0.66 -5.5,0.81 -5.89,2.31 -0.39,1.5 -0.12,1.09 -0.12,1.09l-10.17 2.16c0,0 -2.97,-15.67 -3.89,-18.31 -0.91,-2.64 -6.39,-23.45 -9.41,-25.99 -3.02,-2.55 -52.48,11.49 -52.48,11.49 0,0 -3.2,-0.03 -2.46,5.13 0.74,5.15 3.44,26.2 3.44,26.2 0,0 -0.95,0.55 -0.59,2.25 0.36,1.69 1.71,6.37 1.71,6.37 0,0 0.02,1.76 2.13,1.67l2.68 14.31c0,0 0.6,4.48 5.34,3.47 4.75,-1 43.67,-9.62 43.67,-9.62 0,0 -3.53,-16.61 0.06,-18.08 3.58,-1.47 7.27,5.89 9.22,15.05z"/>
   <polyline class="fil0 str1" points="307.05,265.83 305.11,256.99 350.53,245.57 "/>
   <path class="fil0 str1" d="M311.66 327.88c0,0 2.1,4.87 5.75,3.74 3.66,-1.13 4.1,-2.84 5.22,-6.52"/>
   <path class="fil0 str1" d="M348.88 319.62c0,0 1.28,4.34 5.34,3.47 4.07,-0.86 5.82,-2.65 3.03,-14.1 0,0 -1.22,-5.77 -5.7,-5.17"/>
   <path class="fil0 str1" d="M352.54 318.49c0,0 1.13,3.66 3.31,3.9"/>
   <path class="fil0 str1" d="M374.22 312.12c0,0 1.73,3.17 3.43,2.81 1.69,-0.36 4.96,0.01 3.77,-8.95"/>
   <path class="fil0 str1" d="M375.15 304.83c0,0 1.24,7.53 4.05,9.07"/>
   <polygon class="fil0 str1" points="384.51,297.18 385.95,303.96 400.99,299.7 399.62,293.26 "/>
   <path class="fil0 str1" d="M397.82 301.44c0,0 1.68,4.6 4.13,4.44 2.44,-0.17 4.74,-1.01 4.75,-5.97 0.01,-4.96 -3.04,-10.31 -4.67,-10.35 -1.64,-0.04 -1.96,2.56 -1.92,4.31 0.03,1.75 1,4.74 1,4.74"/>
   <path class="fil0 str1" d="M401.11 298.61c0,0 1.17,4.69 3.98,6.22"/>
   <path class="fil0 str1" d="M405.74 304.09c0,0 5.29,-0.49 5.75,-1.65 0.46,-1.17 0.7,-10.07 -2.73,-12.89 -3.44,-2.81 -3.82,2.69 -3.6,3.71"/>
   <path class="fil0 str1" d="M412.24 302.63c0,0 2.79,-0.24 3.59,-1.47 0.8,-1.23 1,-6.95 -1.37,-11.91 0,0 -1.94,-3.69 -3.55,-1.22 -1.6,2.47 -0.49,3.87 -0.49,3.87"/>
   <path class="fil0 str1" d="M416.8 297.41c0,0 1.77,-0.02 1.68,-2.13l-0.29 -1.35 5.35 -1.49 -0.86 -4.07 -2.13 -1.68 -4.75 1.01 -0.43 -1.8"/>
   <line class="fil0 str1" x1="382.59" y1="301.48" x2="384.62" y2= "301.05" />
   <path class="fil0 str1" d="M342.21 301.55c0,0 2.37,-0.5 1.87,-2.88 -0.5,-2.37 -1.53,-8.88 -2.96,-8.93 -1.43,-0.06 -6.51,-27.32 -6.51,-27.32 0,0 -0.64,-3.33 -2.75,-2.85"/>
   <path class="fil0 str1" d="M295.85 278.44l35.72 -8.65c0,0 1.89,-1.11 2.83,3.3 0.93,4.41 2.01,9.49 2.01,9.49 0,0 1.45,1.82 -2.88,3.1 -4.34,1.27 -35.05,8.5 -35.05,8.5"/>
   <path class="fil0 str1" d="M308.93 310.03c0,0 3.06,11.05 4.82,11.02 1.77,-0.02 17.97,-3.81 17.97,-3.81 0,0 2.04,-0.43 2.21,-2.95 0.18,-2.52 -0.8,-10.46 -0.8,-10.46l-24.41 5.18 0.21 1.02z"/>
   <path class="fil0 str1" d="M339.1 308.59c0,0 5.35,-1.49 5.57,-0.47 0.21,1.01 0.84,2.3 -2.21,2.94 -3.05,0.65 -5.69,1.57 -5.91,0.55 -0.21,-1.02 0.18,-2.52 2.55,-3.02z"/>
   <path class="fil0 str1" d="M305.65 319.59c0,0 3.39,-0.72 3.17,-1.74 -0.21,-1.02 -1.45,-1.82 -3.48,-1.39 -2.04,0.44 -3.21,0.73 -3.04,1.63 0.17,0.9 0.03,2.56 3.35,1.5z"/>
  </g>
  <g id="_2878345821232">
   <path class="fil0 str0" d="M530.2 131.94c0,0 -2.14,16.57 -7.04,26.6 -4.9,10.02 -10.84,23.25 -10.84,23.25 0,0 -1.44,1.39 -10.72,-1.54 0,0 3.66,-8.15 0.57,-10.35 -3.09,-2.2 -7.75,1.83 -10.37,6.76 0,0 -1.62,0.9 -20.71,-5.62 -19.08,-6.52 -25.15,-8.43 -25.15,-8.43 0,0 6.95,-12.77 -0.02,-16.31 -6.97,-3.53 -15.16,7.47 -16.3,8.18 -0.78,0.49 -1.53,1.77 -3.73,1.83 -1,0.03 -2.31,-0.18 -4.05,-0.84 -5.58,-2.09 -17.59,-10.74 -25.73,-14.39 -8.14,-3.66 -7.99,-4 -9.01,-4.45 -1.02,-0.46 -0.89,-5.29 1.7,-11.06 2.59,-5.76 5.29,-12.7 13.34,-15.2 8.05,-2.51 19.93,-9 29.26,-12.55 9.34,-3.56 15.05,-6.29 27.19,-2.48 12.15,3.82 28.89,10.11 33.14,12.42 4.26,2.32 38.47,24.18 38.47,24.18z"/>
   <path class="fil0 str0" d="M437.9 129.67c0,0 13.41,-1.73 29.42,-12.89 16,-11.16 15.85,-9.34 21.67,-10.32"/>
   <path class="fil0 str0" d="M399.06 116.32l22.73 10.2c0,0 -12.47,16 -15.34,15.12 -2.87,-0.88 -11.53,-5.17 -11.53,-5.17 0,0 -2.19,-0.58 -2.45,-2.73 -0.26,-2.15 2.04,-10.9 6.59,-17.42z"/>
   <path class="fil0 str0" d="M392.68 117.83c0,0 0.45,2.3 1.91,3.01 0,0 3.38,-5.13 4.98,-9.45"/>
   <path class="fil0 str0" d="M419.58 133.27c0,0 11.77,4.82 15.66,0.5 3.9,-4.32 2.93,-5.61 -1.07,-5.78 -4,-0.16 -9.43,-2.6 -14.59,5.28z"/>
   <path class="fil0 str0" d="M430.3 99.36c0,0 22.59,6.88 38.73,14.52 0,0 -11.78,8.98 -19.83,11.48"/>
   <path class="fil0 str0" d="M449.2 125.36c0,0 -28.08,-10.97 -37.28,-15.9"/>
   <path class="fil0 str0" d="M425.89 156.31c0,0 -2.66,6.75 0.6,10.62 0.82,0.97 2.66,1.68 4.25,2.31 7.96,3.16 13.42,-5.39 14.18,-7.08 0.77,-1.7 4.72,-10.52 -1.05,-13.11 -5.76,-2.58 -10.2,2.76 -11.45,4.65 -1.25,1.88 -5.92,9.56 -1.68,15.54"/>
   <path class="fil0 str0" d="M388.49 138.07c0,0 -1.6,5.39 2.05,9.06 3.65,3.68 12.11,2.99 13.78,-0.74"/>
   <path class="fil0 str0" d="M392.56 139.89c0,0 -2.15,6.61 2.05,9.07"/>
   <path class="fil0 str0" d="M452.54 165.17c0,0 -1.06,2.37 4.36,4.8 5.43,2.44 7.88,3.51 10.52,-0.18"/>
   <path class="fil0 str0" d="M482.23 174.63c0,0 -2.87,7.05 2.22,9.33 5.09,2.28 8.21,5.32 13.18,0.61 4.96,-4.7 5.66,-11.72 2.42,-13.58 0,0 -2.34,-1.49 -4.07,0.28"/>
   <path class="fil0 str0" d="M487.03 175.94c0,0 -2.53,4.53 -0.36,9.1"/>
   <path class="fil0 str0" d="M491.16 177.19c0,0 -2.95,5.98 0.56,9.81"/>
  </g>
  <g id="_2878345819168">
   <polygon class="fil0 str1" points="269.12,112.72 258.36,89.24 295.7,72.47 310.53,105.17 "/>
   <path class="fil0 str1" d="M294.75 61.23l-8.1 4.35c0,0 2.4,8.17 1.02,8.99 -1.39,0.83 -3.82,-2.62 -5.22,-6l-0.84 0.35c0,0 3.22,6.81 4.63,6.98 1.41,0.18 3.47,-1.19 3.54,-2.21 0.07,-1.02 -0.06,-0.72 -0.06,-0.72l6.34 -2.63c0,0 3.82,9.8 4.73,11.4 0.92,1.6 6.99,14.42 9.25,15.71 2.27,1.28 32.63,-13.81 32.63,-13.81 0,0 2.08,-0.36 0.97,-3.62 -1.1,-3.25 -5.4,-16.57 -5.4,-16.57 0,0 0.55,-0.47 0.11,-1.53 -0.44,-1.05 -1.88,-3.92 -1.88,-3.92 0,0 -0.22,-1.14 -1.58,-0.83l-3.47 -8.95c0,0 -0.93,-2.83 -3.89,-1.6 -2.95,1.23 -27.14,11.52 -27.14,11.52 0,0 4.3,10.35 2.16,11.73 -2.15,1.39 -5.44,-2.94 -7.8,-8.64z"/>
   <polyline class="fil0 str1" points="336.26,86.77 338.59,92.27 310.53,105.17 "/>
   <path class="fil0 str1" d="M325.76 47.11c0,0 -1.95,-2.9 -4.18,-1.73 -2.24,1.18 -2.32,2.33 -2.6,4.86"/>
   <path class="fil0 str1" d="M302.63 56.97c0,0 -1.35,-2.66 -3.89,-1.61 -2.53,1.06 -3.45,2.43 -0.25,9.52 0,0 1.49,3.58 4.32,2.65"/>
   <path class="fil0 str1" d="M300.39 58.14c0,0 -1.17,-2.23 -2.61,-2.13"/>
   <path class="fil0 str1" d="M287.11 64.9c0,0 -1.51,-1.85 -2.56,-1.41 -1.06,0.44 -3.22,0.59 -1.36,6.26"/>
   <path class="fil0 str1" d="M287.39 69.73c0,0 -1.72,-4.73 -3.72,-5.38"/>
   <polygon class="fil0 str1" points="282.25,75.83 280.5,71.61 271.26,76.19 272.93,80.2 "/>
   <path class="fil0 str1" d="M273.11 74.68c0,0 -1.65,-2.78 -3.22,-2.38 -1.56,0.41 -2.95,1.23 -2.36,4.45 0.6,3.22 3.22,6.31 4.29,6.14 1.06,-0.17 0.95,-1.89 0.72,-3.02 -0.23,-1.13 -1.23,-2.96 -1.23,-2.96"/>
   <path class="fil0 str1" d="M271.31 76.91c0,0 -1.32,-2.89 -3.33,-3.55"/>
   <path class="fil0 str1" d="M267.65 73.92c0,0 -3.37,0.96 -3.53,1.77 -0.16,0.81 0.77,6.61 3.33,8.02 2.57,1.41 2.15,-2.21 1.89,-2.84"/>
   <path class="fil0 str1" d="M263.61 75.65c0,0 -1.77,0.5 -2.14,1.39 -0.37,0.9 0.18,4.63 2.33,7.56 0,0 1.7,2.15 2.44,0.36 0.74,-1.79 -0.15,-2.57 -0.15,-2.57"/>
   <path class="fil0 str1" d="M261.29 79.59c0,0 -1.15,0.23 -0.83,1.58l0.35 0.85 -3.29 1.61 1.05 2.53 1.58 0.83 2.96 -1.23 0.5 1.12"/>
   <line class="fil0 str1" x1="282.97" y1="72.81" x2="281.71" y2= "73.33" />
   <path class="fil0 str1" d="M309.14 67.87c0,0 -1.48,0.62 -0.86,2.1 0.61,1.47 2.07,5.57 3,5.43 0.93,-0.14 7.52,16.92 7.52,16.92 0,0 0.82,2.08 2.13,1.51"/>
   <path class="fil0 str1" d="M341.99 77.24l-22.11 9.93c0,0 -1.09,0.95 -2.23,-1.79 -1.14,-2.75 -2.46,-5.91 -2.46,-5.91 0,0 -1.15,-1.01 1.5,-2.36 2.66,-1.35 21.69,-9.75 21.69,-9.75"/>
   <path class="fil0 str1" d="M329.69 58.35c0,0 -3.32,-6.79 -4.46,-6.57 -1.15,0.23 -11.19,4.65 -11.19,4.65 0,0 -1.27,0.53 -1.08,2.18 0.2,1.65 1.79,6.68 1.79,6.68l15.2 -6.31 -0.26 -0.63z"/>
   <path class="fil0 str1" d="M310.31 62.94c0,0 -3.29,1.61 -3.56,0.98 -0.26,-0.64 -0.82,-1.39 1.08,-2.18 1.9,-0.79 3.5,-1.71 3.76,-1.07 0.26,0.63 0.19,1.65 -1.28,2.27z"/>
   <path class="fil0 str1" d="M330.66 51.75c0,0 -2.11,0.88 -1.85,1.51 0.26,0.64 1.16,1.01 2.43,0.48 1.26,-0.52 1.99,-0.86 1.77,-1.42 -0.22,-0.57 -0.33,-1.65 -2.35,-0.57z"/>
  </g>
  <g id="_2878345815712">
   <path class="fil0 str0" d="M323.39 204.19c0,0 -7.37,4.36 -12.97,5.54 -5.6,1.18 -12.82,2.95 -12.82,2.95 0,0 -1.01,-0.14 -2.75,-4.82 0,0 4.44,-1.09 4.36,-3.03 -0.09,-1.94 -3.18,-2.55 -6,-2.06 0,0 -0.88,-0.37 -4.26,-10.14 -3.39,-9.77 -4.53,-12.83 -4.53,-12.83 0,0 7.36,-1.21 6.59,-5.15 -0.77,-3.93 -7.8,-3.78 -8.45,-4.01 -0.44,-0.16 -1.19,-0.06 -1.92,-0.93 -0.33,-0.4 -0.65,-0.99 -0.93,-1.9 -0.92,-2.92 -1.21,-10.5 -2.3,-14.95 -1.09,-4.44 -0.91,-4.48 -1.04,-5.04 -0.14,-0.56 1.86,-2.03 5,-2.8 3.15,-0.77 6.81,-1.87 10.36,0.6 3.55,2.46 9.92,5.22 14.3,7.87 4.38,2.65 7.29,4.1 9.57,10.21 2.29,6.11 5.03,14.86 5.44,17.32 0.4,2.45 2.35,23.17 2.35,23.17z"/>
   <path class="fil0 str0" d="M295.2 166.16c0,0 4.93,4.88 14.49,7.83 9.56,2.95 8.78,3.46 11.01,5.5"/>
   <path class="fil0 str0" d="M288.35 146.25l3.05 12.41c0,0 -10.41,0 -10.96,-1.44 -0.54,-1.43 -1.54,-6.29 -1.54,-6.29 0,0 -0.46,-1.07 0.33,-1.85 0.79,-0.78 5.05,-2.62 9.12,-2.83z"/>
   <path class="fil0 str0" d="M285.73 144.15c0,0 -0.79,0.91 -0.62,1.72 0,0 3.14,-0.25 5.39,-0.97"/>
   <path class="fil0 str0" d="M287.97 159.89c0,0 1.76,6.28 4.74,6.49 2.97,0.22 3.19,-0.59 1.99,-2.26 -1.19,-1.67 -1.92,-4.63 -6.73,-4.23z"/>
   <path class="fil0 str0" d="M305.06 153.53c0,0 4.34,11.3 6.34,20.23 0,0 -7.34,-1.92 -10.89,-4.39"/>
   <path class="fil0 str0" d="M300.51 169.37c0,0 -4.43,-14.81 -5.33,-20.09"/>
   <path class="fil0 str0" d="M280.64 169.71c0,0 -3.56,1.05 -4.1,3.59 -0.13,0.64 0.16,1.6 0.41,2.45 1.23,4.21 6.41,3.72 7.33,3.5 0.93,-0.23 5.74,-1.41 4.97,-4.56 -0.77,-3.15 -4.33,-3.25 -5.49,-3.17 -1.16,0.09 -5.73,0.63 -6.81,4.23"/>
   <path class="fil0 str0" d="M276.22 148.84c0,0 -2.68,1.05 -3.02,3.68 -0.33,2.64 2.62,5.84 4.65,5.34"/>
   <path class="fil0 str0" d="M276.77 151.06c0,0 -3.35,1.21 -3.02,3.69"/>
   <path class="fil0 str0" d="M285.47 183.28c0,0 -1.3,0.31 -0.57,3.28 0.73,2.96 1.07,4.29 3.39,4.19"/>
   <path class="fil0 str0" d="M291.01 198.26c0,0 -3.76,1.07 -3.07,3.84 0.68,2.78 0.44,5 3.9,5.52 3.47,0.52 6.53,-1.41 6.26,-3.3 0,0 -0.14,-1.42 -1.4,-1.56"/>
   <path class="fil0 str0" d="M291.99 200.61c0,0 -2.63,0.41 -3.79,2.73"/>
   <path class="fil0 str0" d="M292.79 202.68c0,0 -3.35,0.69 -3.79,3.32"/>
  </g>
  <g id="_2878345808944">
   <path class="fil0 str1" d="M220.34 186.32c0,0 10.76,8.85 15.67,16.76 4.91,7.91 11.63,17.97 11.63,17.97 0,0 0.34,1.63 -5.85,6.88 0,0 -4.13,-6.19 -7.06,-4.98 -2.92,1.21 -2.14,6.28 0.18,10.32 0,0 -0.08,1.55 -13.15,12.14 -13.07,10.59 -17.1,14.03 -17.1,14.03 0,0 -5.95,-10.57 -11.54,-7.21 -5.59,3.36 -1.45,14.02 -1.45,15.14 0,0.77 0.57,1.86 -0.36,3.45 -0.42,0.72 -1.15,1.55 -2.39,2.48 -3.95,3.02 -15.39,7.67 -21.58,11.81 -6.19,4.13 -6.36,3.87 -7.14,4.39 -0.77,0.51 -4.13,-1.72 -7.05,-6.11 -2.93,-4.38 -6.63,-9.37 -4.83,-16.16 1.8,-6.8 2.48,-18.07 4.11,-26.24 1.63,-8.17 2.22,-13.42 10.31,-20.31 8.08,-6.89 19.94,-15.93 23.47,-17.91 3.52,-1.98 34.13,-16.45 34.13,-16.45z"/>
   <path class="fil0 str1" d="M177.81 250.52c0,0 4.72,-10.24 3.94,-26.5 -0.79,-16.26 0.43,-15.34 2.31,-19.89"/>
   <path class="fil0 str1" d="M151.16 272.04l17.28 -11.54c0,0 5.78,15.91 3.89,17.55 -1.9,1.63 -8.77,5.85 -8.77,5.85 0,0 -1.38,1.29 -3.01,0.52 -1.64,-0.77 -6.8,-6.27 -9.39,-12.38z"/>
   <path class="fil0 str1" d="M149.4 277.22c0,0 1.83,0.7 2.97,-0.02 0,0 -2.12,-4.66 -4.46,-7.7"/>
   <path class="fil0 str1" d="M172.23 265.06c0,0 8.63,-6.18 7.3,-10.84 -1.32,-4.67 -2.67,-4.56 -4.56,-1.81 -1.89,2.76 -6.01,5.51 -2.74,12.65z"/>
   <path class="fil0 str1" d="M153.03 242.45c0,0 14.87,-12.91 27.43,-20.92 0,0 1.12,12.3 -0.68,19.09"/>
   <path class="fil0 str1" d="M179.78 240.62c0,0 -20.2,14.99 -27.77,19.29"/>
   <path class="fil0 str1" d="M191.31 270.82c0,0 3.59,4.87 7.76,4.28 1.05,-0.14 2.37,-1.13 3.53,-1.98 5.76,-4.22 2.14,-11.87 1.28,-13.16 -0.86,-1.29 -5.34,-8 -9.72,-5.07 -4.39,2.93 -2.58,8.43 -1.8,10.15 0.77,1.72 4.13,8.43 10.24,8.08"/>
   <path class="fil0 str1" d="M161.84 289.15c0,0 3.1,3.53 7.31,2.58 4.22,-0.95 7.48,-7.23 5.59,-10.07"/>
   <path class="fil0 str1" d="M164.94 287.08c0,0 3.71,4.46 7.31,2.58"/>
   <path class="fil0 str1" d="M209.38 255.91c0,0 1.21,1.81 5.34,-0.95 4.12,-2.75 5.97,-4.01 4.53,-7.51"/>
   <path class="fil0 str1" d="M229.24 239.13c0,0 3.7,5.16 7.57,2.57 3.87,-2.58 7.4,-3.45 6.28,-9.04 -1.13,-5.59 -5.77,-9.2 -8.53,-7.73 0,0 -2.09,1 -1.61,3"/>
   <path class="fil0 str1" d="M232.29 236.32c0,0 2.07,3.8 6.27,4.29"/>
   <path class="fil0 str1" d="M235 233.96c0,0 2.92,4.73 7.18,3.95"/>
  </g>
  <g id="_2878345807648">
   <path class="fil0 str0" d="M90.82 328.4c0,0 3.64,-3.21 6.63,-4.46 2.99,-1.25 6.81,-3 6.81,-3 0,0 0.58,-0.02 2.05,2.39 0,0 -2.36,1.08 -2.11,2.15 0.26,1.07 2.04,1.09 3.56,0.51 0,0 0.53,0.12 3.44,5.19 2.91,5.08 3.87,6.65 3.87,6.65 0,0 -3.96,1.46 -3.11,3.57 0.84,2.1 4.73,1.27 5.12,1.33 0.26,0.05 0.67,-0.09 1.16,0.32 0.23,0.18 0.47,0.48 0.73,0.96 0.81,1.52 1.78,5.71 2.85,8.06 1.08,2.36 0.98,2.4 1.12,2.7 0.13,0.29 -0.82,1.32 -2.49,2.08 -1.67,0.77 -3.59,1.76 -5.82,0.77 -2.24,-1 -6.07,-1.85 -8.79,-2.87 -2.71,-1.01 -4.48,-1.5 -6.4,-4.66 -1.92,-3.16 -4.37,-7.73 -4.85,-9.05 -0.49,-1.33 -3.77,-12.64 -3.77,-12.64z"/>
   <path class="fil0 str0" d="M110.52 346.56c0,0 -3.25,-2.19 -8.88,-2.82 -5.63,-0.63 -5.25,-0.99 -6.71,-1.89"/>
   <path class="fil0 str0" d="M116.44 356.91l-3.01 -6.58c0,0 5.79,-1.1 6.25,-0.36 0.45,0.74 1.52,3.34 1.52,3.34 0,0 0.37,0.54 0.01,1.06 -0.35,0.52 -2.53,1.99 -4.77,2.54z"/>
   <path class="fil0 str0" d="M118.12 357.8c0,0 0.34,-0.59 0.16,-1.02 0,0 -1.72,0.47 -2.89,1.11"/>
   <path class="fil0 str0" d="M115.21 349.28c0,0 -1.65,-3.3 -3.32,-3.1 -1.68,0.19 -1.72,0.66 -0.87,1.46 0.84,0.8 1.56,2.37 4.19,1.64z"/>
   <path class="fil0 str0" d="M106.38 354.63c0,0 -3.61,-5.83 -5.67,-10.58 0,0 4.29,0.29 6.52,1.29"/>
   <path class="fil0 str0" d="M107.23 345.34c0,0 4.03,7.77 5.09,10.61"/>
   <path class="fil0 str0" d="M118.24 343.05c0,0 1.87,-0.96 1.91,-2.43 0,-0.37 -0.26,-0.88 -0.49,-1.32 -1.13,-2.21 -3.96,-1.39 -4.45,-1.17 -0.49,0.22 -3.04,1.39 -2.28,3.06 0.76,1.67 2.75,1.35 3.39,1.18 0.63,-0.17 3.12,-0.95 3.34,-3.07"/>
   <path class="fil0 str0" d="M122.91 354.19c0,0 1.38,-0.87 1.29,-2.37 -0.09,-1.5 -2.07,-2.97 -3.15,-2.48"/>
   <path class="fil0 str0" d="M122.37 353.01c0,0 1.74,-1.03 1.29,-2.37"/>
   <path class="fil0 str0" d="M114.12 336.02c0,0 0.69,-0.32 -0.03,-1.89 -0.72,-1.57 -1.05,-2.27 -2.33,-1.97"/>
   <path class="fil0 str0" d="M109.46 328.27c0,0 1.97,-0.99 1.3,-2.46 -0.67,-1.48 -0.77,-2.74 -2.76,-2.66 -1.98,0.08 -3.48,1.47 -3.13,2.5 0,0 0.23,0.77 0.94,0.72"/>
   <path class="fil0 str0" d="M108.66 327.06c0,0 1.42,-0.5 1.82,-1.91"/>
   <path class="fil0 str0" d="M108 326c0,0 1.79,-0.74 1.76,-2.25"/>
  </g>
  <g id="_2878345788928">
   <polygon class="fil0 str2" points="169.36,361.33 194.12,385.02 156.3,423.99 122,390.94 "/>
   <path class="fil0 str2" d="M162.99 437.38l7.84 -9.34c0,0 -6.96,-8.88 -5.65,-10.58 1.31,-1.7 5.99,1.37 9.37,4.84l0.87 -0.84c0,0 -7.31,-6.81 -9.13,-6.34 -1.83,0.47 -3.69,3.17 -3.28,4.46 0.41,1.29 0.42,0.86 0.42,0.86l-6.52 6.35c0,0 -9.52,-10.21 -11.43,-11.73 -1.9,-1.53 -15.67,-14.37 -19.1,-14.84 -3.42,-0.47 -33.46,33.01 -33.46,33.01 0,0 -2.38,1.47 0.58,4.94 2.95,3.47 14.77,17.78 14.77,17.78 0,0 -0.44,0.85 0.62,1.94 1.06,1.08 4.24,3.91 4.24,3.91 0,0 0.84,1.3 2.35,0.25l8.67 9.33c0,0 2.53,3.04 5.57,0.08 3.05,-2.96 27.82,-27.51 27.82,-27.51 0,0 -10.37,-10.64 -8.4,-13.41 1.97,-2.76 8.14,0.97 13.85,6.84z"/>
   <polyline class="fil0 str2" points="99.3,426.23 93.73,420.59 122,390.94 "/>
   <path class="fil0 str2" d="M131.67 469.98c0,0 3.83,2.63 6.01,0.08 2.18,-2.54 1.71,-4.01 0.82,-7.26"/>
   <path class="fil0 str2" d="M155.36 446.49c0,0 2.97,2.62 5.57,0.08 2.61,-2.54 3.07,-4.68 -4.34,-11.85 0,0 -3.6,-3.7 -6.63,-1.16"/>
   <path class="fil0 str2" d="M157.54 443.95c0,0 2.54,2.18 4.27,1.34"/>
   <path class="fil0 str2" d="M170.6 429.11c0,0 2.77,1.54 3.86,0.48 1.08,-1.05 3.67,-2.3 -1.39,-8.38"/>
   <path class="fil0 str2" d="M167.89 423.29c0,0 4.44,4.99 7.23,4.81"/>
   <polygon class="fil0 str2" points="171.24,413.25 175.47,417.6 184.61,407.43 180.6,403.3 "/>
   <path class="fil0 str2" d="M183.08 410.19c0,0 3.39,2.62 5.13,1.36 1.73,-1.26 3.04,-2.96 0.73,-6.64 -2.31,-3.67 -7.06,-6.2 -8.29,-5.47 -1.23,0.73 -0.25,2.8 0.59,4.08 0.84,1.28 2.96,3.04 2.96,3.04"/>
   <path class="fil0 str2" d="M184.2 406.56c0,0 3.05,2.92 5.84,2.75"/>
   <path class="fil0 str2" d="M190.18 408.46c0,0 3.68,-2.84 3.48,-3.91 -0.2,-1.08 -4.19,-7.78 -8.04,-8.26 -3.85,-0.48 -1.56,3.77 -0.93,4.42"/>
   <path class="fil0 str2" d="M194.31 404.34c0,0 1.95,-1.48 1.96,-2.76 0.02,-1.29 -2.5,-5.61 -6.57,-8.18 0,0 -3.16,-1.82 -3.19,0.76 -0.04,2.57 1.43,3.09 1.43,3.09"/>
   <path class="fil0 str2" d="M195.24 398.35c0,0 1.3,-0.84 0.25,-2.36l-0.85 -0.87 3.27 -3.6 -2.54 -2.61 -2.36 -0.24 -3.04 2.96 -1.16 -1.13"/>
   <line class="fil0 str2" x1="171.83" y1="417.34" x2="173.13" y2= "416.07" />
   <path class="fil0 str2" d="M141.99 436.24c0,0 1.52,-1.48 0.04,-3 -1.48,-1.52 -5.29,-5.86 -6.37,-5.23 -1.08,0.63 -17.57,-17.18 -17.57,-17.18 0,0 -2.03,-2.16 -3.36,-0.82"/>
   <path class="fil0 str2" d="M96.89 440.79l22.4 -23.08c0,0 0.88,-1.7 3.63,1.12 2.75,2.82 5.92,6.08 5.92,6.08 0,0 1.92,0.67 -0.69,3.64 -2.61,2.97 -21.96,22.65 -21.96,22.65"/>
   <path class="fil0 str2" d="M121.33 458.05c0,0 7.41,6.75 8.71,5.91 1.3,-0.84 11.51,-11.22 11.51,-11.22 0,0 1.31,-1.26 0.26,-3.21 -1.05,-1.94 -5.48,-7.36 -5.48,-7.36l-15.64 15.23 0.64 0.65z"/>
   <path class="fil0 str2" d="M142.97 442.9c0,0 3.26,-3.6 3.9,-2.95 0.63,0.65 1.7,1.31 -0.26,3.21 -1.95,1.91 -3.48,3.82 -4.11,3.16 -0.64,-0.65 -1.05,-1.94 0.47,-3.42z"/>
   <path class="fil0 str2" d="M123.35 466.66c0,0 2.18,-2.12 1.54,-2.77 -0.63,-0.65 -1.92,-0.67 -3.22,0.6 -1.31,1.27 -2.03,2.03 -1.49,2.62 0.55,0.59 1.21,1.88 3.17,-0.45z"/>
  </g>
  <g id="_2878345778944">
   <path class="fil0 str0" d="M311.39 425.38c0,0 -2.9,8.7 -6.61,13.58 -3.7,4.88 -8.3,11.38 -8.3,11.38 0,0 -0.92,0.59 -5.6,-1.97 0,0 2.82,-4 1.39,-5.51 -1.43,-1.51 -4.36,0.16 -6.3,2.54 0,0 -0.97,0.32 -10.56,-5.21 -9.58,-5.53 -12.65,-7.2 -12.65,-7.2 0,0 5.09,-6.15 1.71,-8.79 -3.38,-2.64 -8.96,2.41 -9.64,2.68 -0.47,0.18 -1.01,0.79 -2.21,0.59 -0.54,-0.09 -1.22,-0.35 -2.09,-0.88 -2.78,-1.72 -8.34,-7.65 -12.34,-10.48 -4,-2.83 -3.88,-2.99 -4.38,-3.35 -0.5,-0.35 0.08,-2.94 2.09,-5.77 2,-2.84 4.19,-6.29 8.79,-6.78 4.6,-0.5 11.68,-2.74 17.09,-3.67 5.41,-0.92 8.77,-1.79 14.91,1.55 6.13,3.34 14.49,8.5 16.54,10.19 2.04,1.7 18.16,17.1 18.16,17.1z"/>
   <path class="fil0 str0" d="M261.91 414.39c0,0 7.41,0.48 17.21,-3.83 9.8,-4.32 9.53,-3.36 12.76,-3.27"/>
   <path class="fil0 str0" d="M242.4 403.09l11.17 7.9c0,0 -8.42,7.3 -9.87,6.52 -1.45,-0.78 -5.66,-4.01 -5.66,-4.01 0,0 -1.12,-0.54 -1.03,-1.72 0.09,-1.19 2.25,-5.66 5.39,-8.69z"/>
   <path class="fil0 str0" d="M238.81 403.23c0,0 -0.01,1.29 0.71,1.82 0,0 2.36,-2.4 3.68,-4.56"/>
   <path class="fil0 str0" d="M251.66 414.39c0,0 5.83,3.84 8.39,1.93 2.55,-1.92 2.17,-2.72 0.03,-3.23 -2.14,-0.51 -4.81,-2.4 -8.42,1.3z"/>
   <path class="fil0 str0" d="M261.02 397.26c0,0 11.44,6.09 19.33,11.92 0,0 -7.29,3.59 -11.9,4.09"/>
   <path class="fil0 str0" d="M268.45 413.27c0,0 -13.96,-8.88 -18.4,-12.52"/>
   <path class="fil0 str0" d="M252.62 427.47c0,0 -2.14,3.35 -0.8,5.78 0.34,0.61 1.26,1.19 2.05,1.7 3.95,2.54 7.8,-1.49 8.39,-2.32 0.59,-0.83 3.65,-5.16 0.82,-7.17 -2.83,-2 -5.79,0.41 -6.66,1.29 -0.88,0.88 -4.21,4.53 -2.55,8.2"/>
   <path class="fil0 str0" d="M234.41 413.69c0,0 -1.44,2.73 0.14,5.1 1.58,2.36 6.21,2.89 7.5,1.05"/>
   <path class="fil0 str0" d="M236.41 415.1c0,0 -1.86,3.33 0.14,5.1"/>
   <path class="fil0 str0" d="M266.04 435.06c0,0 -0.82,1.16 1.84,3.05 2.67,1.88 3.88,2.72 5.69,1.01"/>
   <path class="fil0 str0" d="M281.04 443.3c0,0 -2.3,3.49 0.2,5.26 2.5,1.77 3.86,3.73 7.03,1.72 3.17,-2.01 4.3,-5.71 2.75,-7.06 0,0 -1.11,-1.05 -2.23,-0.28"/>
   <path class="fil0 str0" d="M283.48 444.51c0,0 -1.84,2.17 -1.15,4.86"/>
   <path class="fil0 str0" d="M285.57 445.62c0,0 -2.22,2.91 -0.73,5.34"/>
  </g>
  <g id="_2878345770016">
   <polygon class="fil0 str1" points="254.23,559.09 230.18,573.63 207.42,535.36 240.92,515.27 "/>
   <path class="fil0 str1" d="M195.39 537.79l5.71 8.2c0,0 8.52,-3.6 9.59,-2.21 1.06,1.4 -2.36,4.45 -5.84,6.39l0.48 0.87c0,0 6.96,-4.33 6.98,-5.88 0.02,-1.55 -1.72,-3.6 -2.83,-3.55 -1.11,0.05 -0.78,0.15 -0.78,0.15l-3.63 -6.52c0,0 10.12,-5.35 11.73,-6.53 1.62,-1.19 14.73,-9.35 15.84,-11.96 1.1,-2.61 -18.98,-33.55 -18.98,-33.55 0,0 -0.66,-2.19 -4.04,-0.6 -3.38,1.6 -17.23,7.9 -17.23,7.9 0,0 -0.58,-0.53 -1.67,0.07 -1.09,0.61 -4.01,2.52 -4.01,2.52 0,0 -1.2,0.39 -0.69,1.81l-9.25 4.87c0,0 -2.94,1.35 -1.25,4.4 1.69,3.04 15.83,27.9 15.83,27.9 0,0 10.64,-5.93 12.41,-3.78 1.77,2.14 -2.5,6.23 -8.37,9.5z"/>
   <polyline class="fil0 str1" points="217.84,489.75 223.49,486.55 240.92,515.27 "/>
   <path class="fil0 str1" d="M176.27 506.02c0,0 -2.89,2.47 -1.35,4.74 1.55,2.27 2.81,2.21 5.58,2.2"/>
   <path class="fil0 str1" d="M189.8 529.8c0,0 -2.7,1.79 -1.25,4.4 1.45,2.6 3.05,3.42 10.31,-0.91 0,0 3.7,-2.06 2.34,-5"/>
   <path class="fil0 str1" d="M191.35 532.07c0,0 -2.27,1.55 -1.98,3.09"/>
   <path class="fil0 str1" d="M200.3 545.58c0,0 -1.81,1.87 -1.2,2.95 0.6,1.09 1.04,3.41 6.93,0.69"/>
   <path class="fil0 str1" d="M205.5 544.68c0,0 -4.91,2.45 -5.36,4.7"/>
   <polygon class="fil0 str1" points="212.72,549.48 208.38,551.9 214.48,561.32 218.6,559.02 "/>
   <path class="fil0 str1" d="M212.61 559.51c0,0 -2.8,2.13 -2.16,3.77 0.62,1.64 1.69,3.04 5.09,2 3.41,-1.05 6.43,-4.27 6.11,-5.4 -0.32,-1.13 -2.17,-0.8 -3.36,-0.4 -1.19,0.39 -3.04,1.69 -3.04,1.69"/>
   <path class="fil0 str1" d="M215.25 561.17c0,0 -2.97,1.79 -3.42,4.04"/>
   <path class="fil0 str1" d="M212.47 565.5c0,0 1.46,3.52 2.35,3.59 0.9,0.07 7.05,-1.65 8.26,-4.6 1.2,-2.94 -2.65,-2.04 -3.31,-1.68"/>
   <path class="fil0 str1" d="M214.85 569.65c0,0 0.75,1.86 1.76,2.15 1.02,0.29 4.98,-0.78 7.88,-3.46 0,0 2.12,-2.11 0.09,-2.69 -2.03,-0.58 -2.76,0.48 -2.76,0.48"/>
   <path class="fil0 str1" d="M219.39 571.67c0,0 0.39,1.21 1.82,0.7l0.86 -0.48 2.16 3.35 2.6 -1.45 0.7 -1.81 -1.69 -3.04 1.14 -0.69"/>
   <line class="fil0 str1" x1="209.36" y1="549.08" x2="210.09" y2= "550.38" />
   <path class="fil0 str1" d="M200.78 521.4c0,0 0.85,1.53 2.37,0.68 1.52,-0.85 5.77,-2.93 5.5,-3.92 -0.26,-0.99 17.36,-10.24 17.36,-10.24 0,0 2.14,-1.14 1.36,-2.49"/>
   <path class="fil0 str1" d="M206.83 484.73l13.48 22.67c0,0 1.16,1.06 -1.67,2.63 -2.82,1.58 -6.08,3.39 -6.08,3.39 0,0 -0.94,1.38 -2.73,-1.32 -1.79,-2.71 -13.24,-22.24 -13.24,-22.24"/>
   <path class="fil0 str1" d="M187.93 500.38c0,0 -6.93,4.43 -6.54,5.64 0.39,1.21 6.42,11.51 6.42,11.51 0,0 0.72,1.31 2.49,0.89 1.76,-0.41 7,-2.76 7,-2.76l-8.72 -15.64 -0.65 0.36z"/>
   <path class="fil0 str1" d="M195.3 520.76c0,0 2.15,3.35 1.5,3.72 -0.65,0.36 -1.4,1.06 -2.49,-0.89 -1.09,-1.96 -2.27,-3.58 -1.62,-3.94 0.65,-0.36 1.76,-0.41 2.61,1.11z"/>
   <path class="fil0 str1" d="M180.68 500.15c0,0 1.21,2.17 1.87,1.81 0.65,-0.36 0.94,-1.38 0.21,-2.68 -0.73,-1.31 -1.18,-2.05 -1.76,-1.74 -0.58,0.31 -1.74,0.56 -0.32,2.61z"/>
  </g>
  <g id="_2878345769968">
   <path class="fil0 str0" d="M106.31 514.95c0,0 3.9,7.37 4.79,12.88 0.89,5.5 2.28,12.61 2.28,12.61 0,0 -0.18,0.98 -4.82,2.45 0,0 -0.85,-4.37 -2.75,-4.38 -1.89,-0.01 -2.63,2.98 -2.28,5.75 0,0 -0.4,0.83 -10.07,3.67 -9.66,2.84 -12.69,3.81 -12.69,3.81 0,0 -0.84,-7.21 -4.7,-6.65 -3.87,0.57 -4.04,7.42 -4.3,8.04 -0.18,0.42 -0.11,1.16 -0.99,1.82 -0.4,0.3 -1,0.59 -1.9,0.82 -2.88,0.76 -10.27,0.69 -14.64,1.54 -4.38,0.86 -4.41,0.68 -4.96,0.79 -0.55,0.1 -1.89,-1.9 -2.49,-5 -0.61,-3.1 -1.51,-6.71 1.06,-10.05 2.56,-3.34 5.54,-9.41 8.32,-13.55 2.79,-4.14 4.33,-6.91 10.38,-8.85 6.05,-1.94 14.7,-4.2 17.1,-4.48 2.41,-0.28 22.66,-1.22 22.66,-1.22z"/>
   <path class="fil0 str0" d="M68 540.62c0,0 4.97,-4.57 8.29,-13.74 3.31,-9.16 3.77,-8.38 5.86,-10.45"/>
   <path class="fil0 str0" d="M48.31 546.36l12.21 -2.39c0,0 -0.48,10.13 -1.9,10.6 -1.42,0.46 -6.2,1.21 -6.2,1.21 0,0 -1.06,0.4 -1.78,-0.41 -0.73,-0.8 -2.31,-5.04 -2.33,-9.01z"/>
   <path class="fil0 str0" d="M46.14 548.82c0,0 0.85,0.81 1.65,0.67 0,0 -0.1,-3.06 -0.69,-5.28"/>
   <path class="fil0 str0" d="M61.56 547.37c0,0 6.19,-1.43 6.54,-4.31 0.34,-2.89 -0.43,-3.14 -2.11,-2.05 -1.68,1.09 -4.59,1.66 -4.43,6.36z"/>
   <path class="fil0 str0" d="M56.17 530.44c0,0 11.19,-3.7 19.98,-5.23 0,0 -2.22,7.05 -4.78,10.4"/>
   <path class="fil0 str0" d="M71.37 535.61c0,0 -14.62,3.61 -19.79,4.25"/>
   <path class="fil0 str0" d="M70.78 554.95c0,0 0.86,3.52 3.3,4.16 0.61,0.16 1.57,-0.08 2.4,-0.28 4.16,-1.01 3.93,-6.07 3.75,-6.98 -0.18,-0.91 -1.11,-5.65 -4.21,-5.04 -3.1,0.6 -3.36,4.06 -3.33,5.19 0.03,1.13 0.34,5.61 3.79,6.83"/>
   <path class="fil0 str0" d="M50.26 558.28c0,0 0.9,2.66 3.45,3.11 2.55,0.45 5.8,-2.27 5.41,-4.27"/>
   <path class="fil0 str0" d="M52.45 557.85c0,0 1.02,3.32 3.45,3.11"/>
   <path class="fil0 str0" d="M84.2 550.88c0,0 0.25,1.28 3.17,0.71 2.91,-0.58 4.22,-0.84 4.23,-3.11"/>
   <path class="fil0 str0" d="M99.04 546.19c0,0 0.86,3.7 3.6,3.16 2.73,-0.53 4.88,-0.2 5.55,-3.54 0.67,-3.35 -1.07,-6.42 -2.93,-6.24 0,0 -1.38,0.07 -1.58,1.28"/>
   <path class="fil0 str0" d="M101.38 545.34c0,0 0.27,2.58 2.47,3.81"/>
   <path class="fil0 str0" d="M103.42 544.66c0,0 0.52,3.29 3.06,3.84"/>
  </g>
 </g>
</svg>
