<?xml version="1.0" encoding="UTF-8"?>
<!DOCTYPE svg PUBLIC "-//W3C//DTD SVG 1.1//EN" "http://www.w3.org/Graphics/SVG/1.1/DTD/svg11.dtd">
<!-- Creator: CorelDRAW -->
<svg xmlns="http://www.w3.org/2000/svg" xml:space="preserve" width="600px" height="600px" version="1.1" style="shape-rendering:geometricPrecision; text-rendering:geometricPrecision; image-rendering:optimizeQuality; fill-rule:evenodd; clip-rule:evenodd"
viewBox="0 0 600 600"
 xmlns:xlink="http://www.w3.org/1999/xlink"
 xmlns:xodm="http://www.corel.com/coreldraw/odm/2003">
 <defs>
  <style type="text/css">
   <![CDATA[
    .str0 {stroke:#E20613;stroke-width:3;stroke-miterlimit:22.9256}
    .str1 {stroke:#E20613;stroke-width:3;stroke-miterlimit:22.9256}
    .fil0 {fill:none}
    .fil1 {fill:#E20613;fill-rule:nonzero}
   ]]>
  </style>
 </defs>
 <g id="Слой_x0020_1">
  <metadata id="CorelCorpID_0Corel-Layer"/>
  <g id="_2286755207264">
   <polygon class="fil0 str0" points="60.49,528.22 60.49,165.43 216,76.57 373.82,164.07 534.72,76.57 534.72,438.8 377.1,528.22 218.57,437.89 "/>
   <polygon class="fil0 str0" points="173.4,364.49 173.4,203.59 215.74,276.99 260.91,203.59 260.91,364.49 238.33,364.49 238.33,285.46 218.57,319.33 195.99,285.46 195.99,364.49 "/>
   <polygon class="fil0 str0" points="280.67,206.42 280.67,364.49 334.3,282.63 334.3,361.67 356.89,361.67 356.89,206.42 306.08,282.63 306.08,206.42 "/>
   <path class="fil0 str0" d="M376.65 364.49l0 -160.9c0,0 73.39,0.01 73.39,64.93 0,64.92 -50.81,64.92 -50.81,64.92l0 31.05 -22.58 0z"/>
   <path class="fil0 str1" d="M399.23 313.68l0 -84.68c0,0 31.05,5.64 31.05,42.34 0,36.7 -31.05,42.34 -31.05,42.34z"/>
   <path class="fil1" d="M176.04 383.94l5.74 0 5.88 13.08 5.04 -13.08 5.32 0 -8.55 19.2c-0.93,2.08 -1.87,3.66 -2.84,4.75 -0.96,1.09 -2.2,1.63 -3.73,1.63 -1.51,0 -2.68,-0.1 -3.53,-0.29l0 -3.8c0.72,0.04 1.38,0.07 1.96,0.07 1.18,0 2.02,-0.22 2.53,-0.65 0.51,-0.43 1,-1.37 1.47,-2.8l-9.29 -18.11z"/>
   <polygon id="_1" class="fil1" points="210.45,383.94 230.52,383.94 230.52,409.2 225.41,409.2 225.41,388.21 215.56,388.21 215.56,409.2 210.45,409.2 "/>
   <path id="_2" class="fil1" d="M268.3 409.2l-5.51 0 -2.19 -5.75 -10.13 0 -2.1 5.75 -5.41 0 9.81 -25.26 5.41 0 10.12 25.26zm-9.35 -10.02l-3.51 -9.35 -3.41 9.35 6.92 0z"/>
   <path id="_3" class="fil1" d="M280.89 383.94l5.12 0 0 10.76c1.13,-0.12 1.9,-0.4 2.3,-0.88 0.4,-0.47 1.02,-1.78 1.86,-3.93 1.05,-2.74 2.12,-4.44 3.18,-5.11 1.06,-0.66 2.76,-1 5.11,-1 0.12,0 0.37,0 0.74,-0.02l0 3.78 -0.72 -0.02c-1.05,0 -1.81,0.13 -2.29,0.39 -0.49,0.26 -0.87,0.65 -1.17,1.18 -0.3,0.53 -0.75,1.62 -1.33,3.27 -0.31,0.87 -0.64,1.6 -1.01,2.19 -0.36,0.59 -1,1.14 -1.92,1.66 1.14,0.31 2.07,0.97 2.81,1.94 0.75,0.98 1.56,2.36 2.44,4.14l3.44 6.91 -6 0 -3.03 -6.5c-0.04,-0.1 -0.14,-0.27 -0.29,-0.54 -0.06,-0.08 -0.27,-0.48 -0.64,-1.18 -0.64,-1.25 -1.17,-2.03 -1.58,-2.34 -0.42,-0.31 -1.05,-0.47 -1.9,-0.48l0 11.04 -5.12 0 0 -25.26z"/>
   <path id="_4" class="fil1" d="M311.1 396.73c0,-2.58 0.39,-4.74 1.16,-6.5 0.57,-1.28 1.35,-2.44 2.35,-3.47 0.99,-1.02 2.08,-1.78 3.26,-2.28 1.58,-0.66 3.39,-1 5.45,-1 3.73,0 6.7,1.16 8.95,3.47 2.23,2.32 3.35,5.54 3.35,9.66 0,4.08 -1.11,7.28 -3.33,9.59 -2.22,2.31 -5.19,3.46 -8.9,3.46 -3.76,0 -6.75,-1.15 -8.97,-3.44 -2.21,-2.3 -3.32,-5.46 -3.32,-9.49zm5.25 -0.18c0,2.87 0.67,5.04 1.99,6.52 1.32,1.48 3.01,2.22 5.04,2.22 2.04,0 3.71,-0.74 5.02,-2.2 1.31,-1.47 1.96,-3.67 1.96,-6.61 0,-2.9 -0.64,-5.06 -1.91,-6.48 -1.27,-1.43 -2.96,-2.14 -5.07,-2.14 -2.1,0 -3.8,0.72 -5.09,2.16 -1.29,1.45 -1.94,3.62 -1.94,6.53z"/>
   <path id="_5" class="fil1" d="M349.4 383.94l10.1 0c2.01,0 3.5,0.08 4.48,0.25 0.99,0.17 1.86,0.52 2.64,1.04 0.77,0.53 1.42,1.23 1.94,2.1 0.52,0.88 0.77,1.87 0.77,2.96 0,1.17 -0.31,2.26 -0.95,3.24 -0.63,0.99 -1.5,1.72 -2.59,2.22 1.54,0.45 2.72,1.22 3.54,2.3 0.83,1.08 1.24,2.35 1.24,3.81 0,1.16 -0.27,2.27 -0.8,3.36 -0.54,1.09 -1.26,1.96 -2.19,2.61 -0.93,0.65 -2.07,1.05 -3.43,1.2 -0.84,0.09 -2.9,0.15 -6.15,0.17l-8.6 0 0 -25.26zm5.12 4.2l0 5.82 3.34 0c1.98,0 3.21,-0.03 3.69,-0.09 0.87,-0.1 1.56,-0.4 2.06,-0.9 0.5,-0.5 0.75,-1.15 0.75,-1.96 0,-0.78 -0.22,-1.41 -0.65,-1.9 -0.43,-0.49 -1.07,-0.78 -1.91,-0.88 -0.51,-0.06 -1.96,-0.09 -4.36,-0.09l-2.92 0zm0 10.02l0 6.77 4.72 0c1.84,0 3.01,-0.05 3.5,-0.15 0.76,-0.14 1.38,-0.48 1.85,-1.01 0.48,-0.54 0.72,-1.25 0.72,-2.15 0,-0.77 -0.18,-1.41 -0.55,-1.94 -0.37,-0.53 -0.9,-0.92 -1.59,-1.16 -0.7,-0.24 -2.21,-0.36 -4.53,-0.36l-4.12 0z"/>
   <path id="_6" class="fil1" d="M384.75 383.94l5.12 0 0 10.76c1.13,-0.12 1.9,-0.4 2.3,-0.88 0.4,-0.47 1.02,-1.78 1.86,-3.93 1.05,-2.74 2.12,-4.44 3.18,-5.11 1.06,-0.66 2.76,-1 5.11,-1 0.12,0 0.37,0 0.74,-0.02l0 3.78 -0.72 -0.02c-1.05,0 -1.81,0.13 -2.29,0.39 -0.49,0.26 -0.87,0.65 -1.17,1.18 -0.3,0.53 -0.75,1.62 -1.33,3.27 -0.31,0.87 -0.64,1.6 -1.01,2.19 -0.36,0.59 -1,1.14 -1.92,1.66 1.14,0.31 2.07,0.97 2.82,1.94 0.74,0.98 1.55,2.36 2.43,4.14l3.44 6.91 -6 0 -3.03 -6.5c-0.04,-0.1 -0.14,-0.27 -0.29,-0.54 -0.06,-0.08 -0.27,-0.48 -0.64,-1.18 -0.64,-1.25 -1.17,-2.03 -1.58,-2.34 -0.42,-0.31 -1.05,-0.47 -1.9,-0.48l0 11.04 -5.12 0 0 -25.26z"/>
   <polygon id="_7" class="fil1" points="416.09,383.94 420.85,383.94 420.85,400.76 431.08,383.94 436.16,383.94 436.16,409.2 431.4,409.2 431.4,392.66 421.17,409.2 416.09,409.2 "/>
  </g>
 </g>
</svg>
