<?xml version="1.0" encoding="UTF-8"?>
<!DOCTYPE svg PUBLIC "-//W3C//DTD SVG 1.1//EN" "http://www.w3.org/Graphics/SVG/1.1/DTD/svg11.dtd">
<!-- Creator: CorelDRAW -->
<svg xmlns="http://www.w3.org/2000/svg" xml:space="preserve" width="600px" height="300px" version="1.1" style="shape-rendering:geometricPrecision; text-rendering:geometricPrecision; image-rendering:optimizeQuality; fill-rule:evenodd; clip-rule:evenodd"
viewBox="0 0 600 300"
 xmlns:xlink="http://www.w3.org/1999/xlink"
 xmlns:xodm="http://www.corel.com/coreldraw/odm/2003">
 <defs>
  <style type="text/css">
   <![CDATA[
    .str0 {stroke:#84BF41;stroke-width:3;stroke-miterlimit:22.9256}
    .str1 {stroke:#DD3E3D;stroke-width:3;stroke-miterlimit:22.9256}
    .fil0 {fill:none}
   ]]>
  </style>
 </defs>
 <g id="Слой_x0020_1">
  <metadata id="CorelCorpID_0Corel-Layer"/>
  <g id="_2286762365616">
   <path id="Fill-1" class="fil0 str0" d="M133.97 160.48l-11.6 0 0 -32.22 12.04 0c10.84,0 20.05,5.17 20.05,15.88 0,11.81 -8.6,16.34 -20.49,16.34l0 0zm1.49 -54.29l-35.11 0 0 100.38 22.02 0 0 -24.21 13.68 0c53.8,0 53.8,-76.17 -0.59,-76.17l0 0z"/>
   <polygon id="Fill-3" class="fil0 str0" points="405.79,206.73 383.65,206.73 373.56,144.67 354,206.85 330.93,206.89 311.46,144.9 300.54,206.73 278.46,206.73 295.78,106.67 320.66,106.53 342.97,173.69 364.86,106.06 388.59,106.16 "/>
   <polygon id="Fill-5" class="fil0 str0" points="499.61,206.4 478.42,206.4 478.42,144.65 438.16,206.4 420.02,206.4 420.02,106.49 441.74,106.49 441.74,167.68 481.86,106.49 499.61,106.49 "/>
   <path id="Fill-7" class="fil0 str1" d="M256.31 144.44c-2.99,-12.1 -15.23,-18.33 -27.67,-18.33 -12.31,0 -23.94,6.23 -27.17,18.33l54.84 0zm-27.86 -38.59c11.12,0 20.75,3.02 28.88,9.07 8.13,6.05 13.84,14.41 17.22,25.05 1.88,5.94 3.2,13.85 3.2,21.71l-77.82 0.57c2.27,13.43 14.7,24.39 28.57,24.39 9.81,0 20.89,-4.7 23.88,-11.72l17.19 9.91c-3.38,4.91 -7.52,9.11 -12.42,12.6 -8.25,5.86 -17.64,8.8 -28.16,8.8 -14.47,0 -26.28,-4.69 -35.42,-14.07 -9.15,-9.38 -13.72,-21.39 -13.72,-36.03 0,-13.68 4.72,-25.48 14.17,-35.4 9.44,-9.92 20.92,-14.88 34.43,-14.88l0 0z"/>
   <path id="Fill-9" class="fil0 str0" d="M252.7 93.2c1.21,1.52 6.9,-6.68 11.95,-1.43 4.03,4.2 9.19,2.91 10.28,2.48 -4.17,5.95 -6.89,10.28 -13.55,10.33 -3.27,0.03 -9.08,-3.86 -8.98,-8.33 0.02,-0.8 -0.59,-1.18 -1.2,-0.98 -2.76,2.68 -5.64,6.34 -8.4,9.02 7.1,-11.83 16.96,-27.06 17.71,-31.12 1.66,1.9 3.69,3.49 6.02,4.82 -4.84,4.6 -9.28,7.91 -13.83,15.21z"/>
  </g>
 </g>
</svg>
